<?xml version="1.0" encoding="UTF-8"?>
<svg version="1.1" xmlns="http://www.w3.org/2000/svg" width="1024" height="1024">
<path d="M0 0 C1.18603367 -0.00397774 1.18603367 -0.00397774 2.39602762 -0.00803584 C5.06174835 -0.01573264 7.72742304 -0.01628816 10.39315414 -0.01688576 C12.3171875 -0.02090011 14.24122001 -0.02533829 16.16525149 -0.03016531 C21.46530355 -0.04213936 26.76534649 -0.04778117 32.06540942 -0.05234647 C37.77652634 -0.05829927 43.48763235 -0.06990978 49.19874191 -0.08063698 C62.9962643 -0.10516617 76.7937903 -0.11978775 90.59132779 -0.13269705 C94.48685328 -0.13640824 98.38237842 -0.14038151 102.27790356 -0.14444971 C126.45812858 -0.1696826 150.63835317 -0.19175616 174.81858826 -0.20417786 C180.42008339 -0.20709918 186.0215785 -0.21006671 191.62307358 -0.21308327 C192.3189875 -0.21345418 193.01490142 -0.21382509 193.73190364 -0.21420723 C216.2996364 -0.22636518 238.86729121 -0.25731419 261.43498736 -0.29900479 C285.29280373 -0.34299836 309.15056842 -0.36871096 333.00842643 -0.37409842 C346.01459391 -0.37751562 359.02063838 -0.38930747 372.02676773 -0.42220116 C383.1006095 -0.45016179 394.17430304 -0.46121842 405.24817738 -0.4500057 C410.89980839 -0.44480914 416.55112877 -0.44777089 422.20271492 -0.47247124 C427.37569814 -0.49489155 432.5481463 -0.49427992 437.72113845 -0.47526737 C439.59329612 -0.47245725 441.46548952 -0.47812175 443.33758953 -0.4930803 C454.60620659 -0.57761989 461.5875496 -0.2949986 470.08059311 7.87138939 C470.97514335 8.86847832 471.86023123 9.8741185 472.73684311 10.88701439 C473.76952938 12.04170579 474.80344994 13.19529413 475.83840561 14.34795189 C476.38400131 14.95993431 476.92959702 15.57191673 477.49172592 16.20244408 C480.64053739 19.69309629 483.88131257 23.09716975 487.11184311 26.51201439 C492.18859262 31.89465747 497.25411671 37.28731031 502.29934311 42.69951439 C508.96797935 49.8526606 515.65490768 56.98850884 522.34572983 64.12090111 C526.10119986 68.12460257 529.8551588 72.1297209 533.6094017 76.13457298 C536.74643609 79.48090651 539.88383399 82.82689768 543.02199936 86.17217064 C549.68063192 93.27104337 556.33107946 100.37738332 562.96975327 107.49492455 C569.08341853 114.047854 575.21418961 120.58470136 581.34572983 127.12090111 C585.10119986 131.12460257 588.8551588 135.1297209 592.6094017 139.13457298 C595.74643609 142.48090651 598.88383399 145.82689768 602.02199936 149.17217064 C608.68063192 156.27104337 615.33107946 163.37738332 621.96975327 170.49492455 C628.71198151 177.72157896 635.47473059 184.92897173 642.23684311 192.13701439 C646.61877083 196.80791004 650.99985981 201.47958625 655.37844467 206.15361595 C656.62744409 207.48662584 657.87679872 208.81930298 659.12649155 210.15166283 C662.67382515 213.93438197 666.21285632 217.72447834 669.73879623 221.52715111 C671.07954649 222.96797692 672.4309436 224.39887826 673.78371811 225.82842064 C674.84332748 226.97117455 674.84332748 226.97117455 675.92434311 228.13701439 C676.5057103 228.75576439 677.08707748 229.37451439 677.68606186 230.01201439 C682.80238255 237.02279136 682.67921337 243.6257521 682.66921616 252.04887962 C682.67940781 253.33737312 682.68959946 254.62586662 682.70009995 255.95340538 C682.72757868 259.46943041 682.73694193 262.9852937 682.74295402 266.50141215 C682.7523616 270.18234345 682.77856684 273.86315507 682.80295944 277.54401207 C682.84656276 284.50653428 682.87514751 291.46903319 682.89828283 298.43165022 C682.92536766 306.36159775 682.96927708 314.29142453 683.01457155 322.2212857 C683.10732943 338.5264673 683.17905058 354.83167056 683.23684311 371.13701439 C683.62657806 370.41027519 684.01631302 369.683536 684.41785812 368.9347744 C685.89683844 366.1783767 687.37696029 363.42259568 688.85779953 360.66719627 C689.80055021 358.91223123 690.74204233 357.15659029 691.68349838 355.4009304 C695.63380675 348.05291371 699.66804304 340.75973108 703.79934311 333.51201439 C708.20606115 325.76894515 712.51509371 317.98256398 716.73684311 310.13701439 C721.50013358 301.2858948 726.39049976 292.51724753 731.36184311 283.78154564 C735.24121461 276.94601846 739.01211616 270.05788036 742.73684311 263.13701439 C746.92449545 255.35887156 751.1840865 247.62941788 755.54934311 239.94951439 C760.44409845 231.33706344 765.27022458 222.6889843 770.04934311 214.01201439 C770.38405624 213.40437248 770.71876938 212.79673058 771.06362534 212.17067528 C772.77123445 209.07004087 774.47792669 205.96890301 776.18410873 202.86748314 C786.07279489 184.89360429 795.96643322 166.92158317 805.97121811 149.01201439 C807.86945405 145.61199587 809.74498602 142.20451216 811.56496811 138.76201439 C819.97955637 123.01619026 832.19087181 111.46706495 849.16653061 105.45342064 C864.66596621 101.08101176 881.92491024 104.20245181 895.98684311 111.32451439 C911.74189066 120.43772817 923.62782524 133.52614838 928.54934311 151.32451439 C933.80432647 179.94631696 917.24233809 203.27878353 903.70949936 227.01201439 C899.88743107 233.72885824 896.15136827 240.49219576 892.42434311 247.26201439 C891.92240936 248.17334129 891.92240936 248.17334129 891.41033554 249.10307884 C889.70264877 252.20381248 887.99581074 255.30501197 886.28957748 258.40654564 C882.92208078 264.52737674 879.548508 270.64485736 876.17434311 276.76201439 C875.84300369 277.36281822 875.51166428 277.96362206 875.17028427 278.58263206 C869.76060203 288.39073639 864.32564889 298.18462394 858.88113022 307.97344017 C854.31579351 316.18518329 849.77202326 324.4085984 845.23684311 332.63701439 C836.98821319 347.6018264 828.68861072 362.53810199 820.38235092 377.47099876 C812.97404309 390.79114404 805.58400812 404.12101892 798.22686386 417.46947289 C792.79957941 427.31581043 787.3463627 437.14747812 781.88137436 446.97295189 C777.31600046 455.1848823 772.77211103 463.40843915 768.23684311 471.63701439 C759.98821319 486.6018264 751.68861072 501.53810199 743.38235092 516.47099876 C736.31305495 529.18160036 729.25786966 541.89969745 722.23684311 554.63701439 C714.601926 568.48803151 706.92469329 582.31530358 699.23684311 596.13701439 C696.78183682 600.55109977 694.32725955 604.96542321 691.87334824 609.38011742 C690.8808501 611.16532647 689.88783956 612.95024983 688.89480209 614.73515892 C688.29869125 615.80749779 687.70258041 616.87983665 687.08840561 617.98467064 C686.56069565 618.93350121 686.03298569 619.88233177 685.48928452 620.85991478 C683.51285277 624.45332196 683.11081304 626.40480232 683.10655785 630.53176403 C683.1029335 631.68421637 683.09930915 632.83666872 683.09557498 634.02404386 C683.09664323 635.30114545 683.09771148 636.57824705 683.0988121 637.89404869 C683.09639546 639.25594435 683.09353364 640.61783929 683.09026277 641.97973317 C683.08248757 645.73544271 683.08088917 649.49113401 683.08021164 653.24685061 C683.0783757 657.29277901 683.07077069 661.33869665 683.06373215 665.38461876 C683.05219167 672.40180197 683.04395483 679.41898277 683.03761292 686.43617249 C683.02729379 697.53375014 683.00673029 708.63129778 682.98449326 719.72885704 C682.97701281 723.52513017 682.96959912 727.32140343 682.96220589 731.11767673 C682.96035532 732.06654248 682.95850475 733.01540823 682.95659811 733.99302748 C682.93565798 744.80184375 682.91683792 755.61066336 682.89895248 766.41948509 C682.8973143 767.40782816 682.89567612 768.39617122 682.8939883 769.41446408 C682.86773611 785.41020266 682.84907589 801.40594355 682.83236058 817.40169451 C682.81491989 833.82657791 682.78605031 850.25141618 682.74747121 866.67626351 C682.72410693 876.80435572 682.71007985 886.9323743 682.70814358 897.06049367 C682.70602889 904.00999559 682.69305527 910.95942446 682.67166425 917.90889356 C682.65967505 921.9145127 682.65245713 925.91998686 682.65837669 929.92562294 C682.66371017 933.60066103 682.65506877 937.2754046 682.63582031 940.9503937 C682.62915029 942.89318957 682.63702122 944.83601907 682.64559805 946.77880746 C682.52126168 963.39204123 678.17365276 976.73862499 666.65871811 988.91045189 C657.15721104 997.64570839 646.59205367 1000.60069 633.96199608 1000.51733112 C632.2976005 1000.524321 632.2976005 1000.524321 630.59958076 1000.53145209 C626.87898917 1000.54340921 623.15876226 1000.53400351 619.43816757 1000.52469444 C616.74473388 1000.52886704 614.05132598 1000.53422228 611.35790002 1000.54101425 C605.50053972 1000.55337761 599.64325952 1000.55459504 593.78589058 1000.54846382 C585.07566168 1000.53937075 576.36550683 1000.54740641 567.65528362 1000.55875506 C552.0979917 1000.57842446 536.5407331 1000.58076885 520.98343171 1000.57555986 C507.367757 1000.57100321 493.75209549 1000.57160121 480.1364212 1000.57740021 C478.3102439 1000.57815707 476.4840666 1000.57891305 474.6578893 1000.57966815 C471.90602415 1000.58081334 469.154159 1000.58196322 466.40229385 1000.5831274 C440.81676552 1000.59383297 415.23124158 1000.59855705 389.6457119 1000.59065723 C388.6811757 1000.59036006 387.71663949 1000.59006289 386.72287492 1000.58975671 C378.89009457 1000.58730776 371.05731427 1000.58469618 363.22453397 1000.58207258 C332.67099896 1000.57197002 302.1175189 1000.58032548 271.56399155 1000.60356712 C237.23742118 1000.62963661 202.9108839 1000.64248849 168.58430326 1000.63537937 C164.92450103 1000.63466331 161.26469879 1000.63398892 157.60489655 1000.63333893 C156.25319088 1000.63308421 156.25319088 1000.63308421 154.87417804 1000.63282436 C141.26868083 1000.63052096 127.66321432 1000.63850029 114.057724 1000.6516304 C98.58541342 1000.66653547 83.11317484 1000.66739309 67.64086582 1000.64955949 C58.9825552 1000.63999073 50.32441248 1000.64144307 41.66611304 1000.65879418 C35.88099821 1000.66927767 30.09601136 1000.66519176 24.31090914 1000.64931414 C21.01578957 1000.6406764 17.72106428 1000.6404802 14.42594977 1000.65358346 C10.87144823 1000.66671408 7.31783561 1000.65520347 3.76337242 1000.63758564 C2.74720463 1000.64723615 1.73103683 1000.65688666 0.68407607 1000.66682962 C-11.86692652 1000.53904766 -22.21638636 995.38889814 -31.38815689 987.01201439 C-43.2100571 974.5027944 -45.22419003 959.85571473 -45.14068031 943.35721397 C-45.14381495 941.78127355 -45.14826257 940.20533529 -45.15389341 938.6294018 C-45.16553923 934.30954746 -45.15860497 929.98989518 -45.14855955 925.67004426 C-45.14093439 920.96627337 -45.15073516 916.26253292 -45.15828955 911.55876637 C-45.16911759 903.31829866 -45.16880023 895.07788993 -45.16114807 886.83741951 C-45.14979997 874.58354804 -45.15560219 862.32972631 -45.16477299 850.07585517 C-45.18057232 828.1903846 -45.17920019 806.30494031 -45.17053626 784.41946724 C-45.16299149 765.26719783 -45.1610186 746.11493805 -45.16460419 726.96266747 C-45.16483334 725.69256749 -45.1650625 724.42246752 -45.1652986 723.11387967 C-45.1662326 717.9582127 -45.1671878 712.80254574 -45.16817789 707.64687878 C-45.1750058 671.66330812 -45.17620959 635.6797421 -45.16498756 599.69617271 C-45.16477682 599.01809656 -45.16456607 598.3400204 -45.16434894 597.64139648 C-45.16091416 586.63014309 -45.15725574 575.61888977 -45.15357842 564.60763645 C-45.1390096 520.9367558 -45.13968581 477.26590274 -45.15427017 433.5950222 C-45.1579338 422.58930018 -45.16156697 411.58357816 -45.16498756 400.57785606 C-45.16519891 399.90017745 -45.16541025 399.22249883 -45.165628 398.5242845 C-45.17696136 361.9329509 -45.17446032 325.34161979 -45.16743338 288.75028515 C-45.16647122 283.60397721 -45.1655327 278.45766926 -45.16460419 273.31136131 C-45.16424834 271.41061372 -45.16424834 271.41061372 -45.1638853 269.47146719 C-45.16047196 250.33059044 -45.16446543 231.18972438 -45.17204285 212.04884911 C-45.18061516 190.28622275 -45.17848777 168.52362678 -45.16220061 146.76100421 C-45.15338463 134.57917473 -45.15282701 122.39741106 -45.16413914 110.21558328 C-45.17086063 102.0806216 -45.16668981 93.94571273 -45.15362483 85.81075888 C-45.14648221 81.17445978 -45.1440615 76.53829152 -45.15484278 71.90199649 C-45.16455789 67.68116522 -45.16038185 63.46058043 -45.1453008 59.239767 C-45.14228855 57.72535715 -45.14425328 56.21092673 -45.15191861 54.69653328 C-45.22935663 38.22380296 -42.04206918 24.78528395 -30.70065689 12.32451439 C-22.21428323 4.29172277 -11.58876717 -0.01884859 0 0 Z " fill="#F3F2ED" transform="translate(69.76315689086914,11.862985610961914)"/>
<path d="M0 0 C1.18603367 -0.00397774 1.18603367 -0.00397774 2.39602762 -0.00803584 C5.06174835 -0.01573264 7.72742304 -0.01628816 10.39315414 -0.01688576 C12.3171875 -0.02090011 14.24122001 -0.02533829 16.16525149 -0.03016531 C21.46530355 -0.04213936 26.76534649 -0.04778117 32.06540942 -0.05234647 C37.77652634 -0.05829927 43.48763235 -0.06990978 49.19874191 -0.08063698 C62.9962643 -0.10516617 76.7937903 -0.11978775 90.59132779 -0.13269705 C94.48685328 -0.13640824 98.38237842 -0.14038151 102.27790356 -0.14444971 C126.45812858 -0.1696826 150.63835317 -0.19175616 174.81858826 -0.20417786 C180.42008339 -0.20709918 186.0215785 -0.21006671 191.62307358 -0.21308327 C192.3189875 -0.21345418 193.01490142 -0.21382509 193.73190364 -0.21420723 C216.2996364 -0.22636518 238.86729121 -0.25731419 261.43498736 -0.29900479 C285.29280373 -0.34299836 309.15056842 -0.36871096 333.00842643 -0.37409842 C346.01459391 -0.37751562 359.02063838 -0.38930747 372.02676773 -0.42220116 C383.1006095 -0.45016179 394.17430304 -0.46121842 405.24817738 -0.4500057 C410.89980839 -0.44480914 416.55112877 -0.44777089 422.20271492 -0.47247124 C427.37569814 -0.49489155 432.5481463 -0.49427992 437.72113845 -0.47526737 C439.59329612 -0.47245725 441.46548952 -0.47812175 443.33758953 -0.4930803 C454.60620659 -0.57761989 461.5875496 -0.2949986 470.08059311 7.87138939 C470.97514335 8.86847832 471.86023123 9.8741185 472.73684311 10.88701439 C473.76952938 12.04170579 474.80344994 13.19529413 475.83840561 14.34795189 C476.38400131 14.95993431 476.92959702 15.57191673 477.49172592 16.20244408 C480.64053739 19.69309629 483.88131257 23.09716975 487.11184311 26.51201439 C492.18859262 31.89465747 497.25411671 37.28731031 502.29934311 42.69951439 C508.96797935 49.8526606 515.65490768 56.98850884 522.34572983 64.12090111 C526.10119986 68.12460257 529.8551588 72.1297209 533.6094017 76.13457298 C536.74643609 79.48090651 539.88383399 82.82689768 543.02199936 86.17217064 C549.68063192 93.27104337 556.33107946 100.37738332 562.96975327 107.49492455 C569.08341853 114.047854 575.21418961 120.58470136 581.34572983 127.12090111 C585.10119986 131.12460257 588.8551588 135.1297209 592.6094017 139.13457298 C595.74643609 142.48090651 598.88383399 145.82689768 602.02199936 149.17217064 C608.68063192 156.27104337 615.33107946 163.37738332 621.96975327 170.49492455 C628.71198151 177.72157896 635.47473059 184.92897173 642.23684311 192.13701439 C646.61877083 196.80791004 650.99985981 201.47958625 655.37844467 206.15361595 C656.62744409 207.48662584 657.87679872 208.81930298 659.12649155 210.15166283 C662.67382515 213.93438197 666.21285632 217.72447834 669.73879623 221.52715111 C671.07954649 222.96797692 672.4309436 224.39887826 673.78371811 225.82842064 C674.84332748 226.97117455 674.84332748 226.97117455 675.92434311 228.13701439 C676.5057103 228.75576439 677.08707748 229.37451439 677.68606186 230.01201439 C682.80238255 237.02279136 682.67921337 243.6257521 682.66921616 252.04887962 C682.67940781 253.33737312 682.68959946 254.62586662 682.70009995 255.95340538 C682.72757868 259.46943041 682.73694193 262.9852937 682.74295402 266.50141215 C682.7523616 270.18234345 682.77856684 273.86315507 682.80295944 277.54401207 C682.84656276 284.50653428 682.87514751 291.46903319 682.89828283 298.43165022 C682.92536766 306.36159775 682.96927708 314.29142453 683.01457155 322.2212857 C683.10732943 338.5264673 683.17905058 354.83167056 683.23684311 371.13701439 C683.62657806 370.41027519 684.01631302 369.683536 684.41785812 368.9347744 C685.89683844 366.1783767 687.37696029 363.42259568 688.85779953 360.66719627 C689.80055021 358.91223123 690.74204233 357.15659029 691.68349838 355.4009304 C695.63380675 348.05291371 699.66804304 340.75973108 703.79934311 333.51201439 C708.20606115 325.76894515 712.51509371 317.98256398 716.73684311 310.13701439 C721.50013358 301.2858948 726.39049976 292.51724753 731.36184311 283.78154564 C735.24121461 276.94601846 739.01211616 270.05788036 742.73684311 263.13701439 C746.92449545 255.35887156 751.1840865 247.62941788 755.54934311 239.94951439 C760.44409845 231.33706344 765.27022458 222.6889843 770.04934311 214.01201439 C770.38405624 213.40437248 770.71876938 212.79673058 771.06362534 212.17067528 C772.77123445 209.07004087 774.47792669 205.96890301 776.18410873 202.86748314 C786.07279489 184.89360429 795.96643322 166.92158317 805.97121811 149.01201439 C807.86945405 145.61199587 809.74498602 142.20451216 811.56496811 138.76201439 C819.97955637 123.01619026 832.19087181 111.46706495 849.16653061 105.45342064 C864.66596621 101.08101176 881.92491024 104.20245181 895.98684311 111.32451439 C911.74189066 120.43772817 923.62782524 133.52614838 928.54934311 151.32451439 C933.80432647 179.94631696 917.24233809 203.27878353 903.70949936 227.01201439 C899.88743107 233.72885824 896.15136827 240.49219576 892.42434311 247.26201439 C891.92240936 248.17334129 891.92240936 248.17334129 891.41033554 249.10307884 C889.70264877 252.20381248 887.99581074 255.30501197 886.28957748 258.40654564 C882.92208078 264.52737674 879.548508 270.64485736 876.17434311 276.76201439 C875.84300369 277.36281822 875.51166428 277.96362206 875.17028427 278.58263206 C869.76060203 288.39073639 864.32564889 298.18462394 858.88113022 307.97344017 C854.31579351 316.18518329 849.77202326 324.4085984 845.23684311 332.63701439 C836.98821319 347.6018264 828.68861072 362.53810199 820.38235092 377.47099876 C812.97404309 390.79114404 805.58400812 404.12101892 798.22686386 417.46947289 C792.79957941 427.31581043 787.3463627 437.14747812 781.88137436 446.97295189 C777.31600046 455.1848823 772.77211103 463.40843915 768.23684311 471.63701439 C759.98821319 486.6018264 751.68861072 501.53810199 743.38235092 516.47099876 C736.31305495 529.18160036 729.25786966 541.89969745 722.23684311 554.63701439 C714.601926 568.48803151 706.92469329 582.31530358 699.23684311 596.13701439 C696.78183682 600.55109977 694.32725955 604.96542321 691.87334824 609.38011742 C690.8808501 611.16532647 689.88783956 612.95024983 688.89480209 614.73515892 C688.29869125 615.80749779 687.70258041 616.87983665 687.08840561 617.98467064 C686.56069565 618.93350121 686.03298569 619.88233177 685.48928452 620.85991478 C683.51285277 624.45332196 683.11081304 626.40480232 683.10655785 630.53176403 C683.1029335 631.68421637 683.09930915 632.83666872 683.09557498 634.02404386 C683.09664323 635.30114545 683.09771148 636.57824705 683.0988121 637.89404869 C683.09639546 639.25594435 683.09353364 640.61783929 683.09026277 641.97973317 C683.08248757 645.73544271 683.08088917 649.49113401 683.08021164 653.24685061 C683.0783757 657.29277901 683.07077069 661.33869665 683.06373215 665.38461876 C683.05219167 672.40180197 683.04395483 679.41898277 683.03761292 686.43617249 C683.02729379 697.53375014 683.00673029 708.63129778 682.98449326 719.72885704 C682.97701281 723.52513017 682.96959912 727.32140343 682.96220589 731.11767673 C682.96035532 732.06654248 682.95850475 733.01540823 682.95659811 733.99302748 C682.93565798 744.80184375 682.91683792 755.61066336 682.89895248 766.41948509 C682.8973143 767.40782816 682.89567612 768.39617122 682.8939883 769.41446408 C682.86773611 785.41020266 682.84907589 801.40594355 682.83236058 817.40169451 C682.81491989 833.82657791 682.78605031 850.25141618 682.74747121 866.67626351 C682.72410693 876.80435572 682.71007985 886.9323743 682.70814358 897.06049367 C682.70602889 904.00999559 682.69305527 910.95942446 682.67166425 917.90889356 C682.65967505 921.9145127 682.65245713 925.91998686 682.65837669 929.92562294 C682.66371017 933.60066103 682.65506877 937.2754046 682.63582031 940.9503937 C682.62915029 942.89318957 682.63702122 944.83601907 682.64559805 946.77880746 C682.52126168 963.39204123 678.17365276 976.73862499 666.65871811 988.91045189 C657.15721104 997.64570839 646.59205367 1000.60069 633.96199608 1000.51733112 C632.2976005 1000.524321 632.2976005 1000.524321 630.59958076 1000.53145209 C626.87898917 1000.54340921 623.15876226 1000.53400351 619.43816757 1000.52469444 C616.74473388 1000.52886704 614.05132598 1000.53422228 611.35790002 1000.54101425 C605.50053972 1000.55337761 599.64325952 1000.55459504 593.78589058 1000.54846382 C585.07566168 1000.53937075 576.36550683 1000.54740641 567.65528362 1000.55875506 C552.0979917 1000.57842446 536.5407331 1000.58076885 520.98343171 1000.57555986 C507.367757 1000.57100321 493.75209549 1000.57160121 480.1364212 1000.57740021 C478.3102439 1000.57815707 476.4840666 1000.57891305 474.6578893 1000.57966815 C471.90602415 1000.58081334 469.154159 1000.58196322 466.40229385 1000.5831274 C440.81676552 1000.59383297 415.23124158 1000.59855705 389.6457119 1000.59065723 C388.6811757 1000.59036006 387.71663949 1000.59006289 386.72287492 1000.58975671 C378.89009457 1000.58730776 371.05731427 1000.58469618 363.22453397 1000.58207258 C332.67099896 1000.57197002 302.1175189 1000.58032548 271.56399155 1000.60356712 C237.23742118 1000.62963661 202.9108839 1000.64248849 168.58430326 1000.63537937 C164.92450103 1000.63466331 161.26469879 1000.63398892 157.60489655 1000.63333893 C156.25319088 1000.63308421 156.25319088 1000.63308421 154.87417804 1000.63282436 C141.26868083 1000.63052096 127.66321432 1000.63850029 114.057724 1000.6516304 C98.58541342 1000.66653547 83.11317484 1000.66739309 67.64086582 1000.64955949 C58.9825552 1000.63999073 50.32441248 1000.64144307 41.66611304 1000.65879418 C35.88099821 1000.66927767 30.09601136 1000.66519176 24.31090914 1000.64931414 C21.01578957 1000.6406764 17.72106428 1000.6404802 14.42594977 1000.65358346 C10.87144823 1000.66671408 7.31783561 1000.65520347 3.76337242 1000.63758564 C2.74720463 1000.64723615 1.73103683 1000.65688666 0.68407607 1000.66682962 C-11.86692652 1000.53904766 -22.21638636 995.38889814 -31.38815689 987.01201439 C-43.2100571 974.5027944 -45.22419003 959.85571473 -45.14068031 943.35721397 C-45.14381495 941.78127355 -45.14826257 940.20533529 -45.15389341 938.6294018 C-45.16553923 934.30954746 -45.15860497 929.98989518 -45.14855955 925.67004426 C-45.14093439 920.96627337 -45.15073516 916.26253292 -45.15828955 911.55876637 C-45.16911759 903.31829866 -45.16880023 895.07788993 -45.16114807 886.83741951 C-45.14979997 874.58354804 -45.15560219 862.32972631 -45.16477299 850.07585517 C-45.18057232 828.1903846 -45.17920019 806.30494031 -45.17053626 784.41946724 C-45.16299149 765.26719783 -45.1610186 746.11493805 -45.16460419 726.96266747 C-45.16483334 725.69256749 -45.1650625 724.42246752 -45.1652986 723.11387967 C-45.1662326 717.9582127 -45.1671878 712.80254574 -45.16817789 707.64687878 C-45.1750058 671.66330812 -45.17620959 635.6797421 -45.16498756 599.69617271 C-45.16477682 599.01809656 -45.16456607 598.3400204 -45.16434894 597.64139648 C-45.16091416 586.63014309 -45.15725574 575.61888977 -45.15357842 564.60763645 C-45.1390096 520.9367558 -45.13968581 477.26590274 -45.15427017 433.5950222 C-45.1579338 422.58930018 -45.16156697 411.58357816 -45.16498756 400.57785606 C-45.16519891 399.90017745 -45.16541025 399.22249883 -45.165628 398.5242845 C-45.17696136 361.9329509 -45.17446032 325.34161979 -45.16743338 288.75028515 C-45.16647122 283.60397721 -45.1655327 278.45766926 -45.16460419 273.31136131 C-45.16424834 271.41061372 -45.16424834 271.41061372 -45.1638853 269.47146719 C-45.16047196 250.33059044 -45.16446543 231.18972438 -45.17204285 212.04884911 C-45.18061516 190.28622275 -45.17848777 168.52362678 -45.16220061 146.76100421 C-45.15338463 134.57917473 -45.15282701 122.39741106 -45.16413914 110.21558328 C-45.17086063 102.0806216 -45.16668981 93.94571273 -45.15362483 85.81075888 C-45.14648221 81.17445978 -45.1440615 76.53829152 -45.15484278 71.90199649 C-45.16455789 67.68116522 -45.16038185 63.46058043 -45.1453008 59.239767 C-45.14228855 57.72535715 -45.14425328 56.21092673 -45.15191861 54.69653328 C-45.22935663 38.22380296 -42.04206918 24.78528395 -30.70065689 12.32451439 C-22.21428323 4.29172277 -11.58876717 -0.01884859 0 0 Z M-8.76315689 37.13701439 C-13.13936876 43.69968071 -12.1803323 51.61273921 -12.14347363 59.21904469 C-12.1469076 60.78013582 -12.1516547 62.34122452 -12.15759459 63.90230814 C-12.17013185 68.20421224 -12.16394187 72.50591865 -12.15476091 76.80782376 C-12.14806546 81.48339087 -12.15871001 86.15892339 -12.16715676 90.83448321 C-12.17954763 99.03305995 -12.18072567 107.23157948 -12.17460632 115.43016243 C-12.16553096 127.62161385 -12.17353463 139.81301218 -12.18489756 152.00445951 C-12.20458802 173.77628127 -12.20690735 195.54807925 -12.20170236 217.31990778 C-12.19714942 236.37315415 -12.19773908 255.42639109 -12.20354271 274.47963715 C-12.20429957 277.03304244 -12.20505555 279.58644773 -12.20581065 282.13985302 C-12.20695582 285.98735525 -12.20810569 289.83485747 -12.2092699 293.68235969 C-12.21997868 329.46408718 -12.22472772 365.24581117 -12.21679974 401.02753925 C-12.21665143 401.70208145 -12.21650312 402.37662365 -12.21635032 403.07160652 C-12.21469131 410.59356029 -12.21294173 418.11551405 -12.21115731 425.63746779 C-12.21099629 426.3165966 -12.21083526 426.9957254 -12.21066936 427.69543387 C-12.20969189 431.81511368 -12.20969189 431.81511368 -12.20870817 435.9347935 C-12.19831555 479.37973856 -12.20608504 522.82464311 -12.22970963 566.26958275 C-12.23565294 577.21723708 -12.24154447 588.16489144 -12.24711895 599.11254597 C-12.24746272 599.78661965 -12.24780649 600.46069334 -12.24816068 601.1551935 C-12.26659855 637.5404425 -12.26691226 673.92569064 -12.26152188 710.31094366 C-12.26080579 715.42748773 -12.2601314 720.54403179 -12.25948143 725.66057587 C-12.25931162 726.92044422 -12.25914181 728.18031257 -12.25896686 729.47835875 C-12.25666102 748.52106448 -12.2646544 767.56374831 -12.2777729 786.60644913 C-12.29265986 808.25513206 -12.29355992 829.90376354 -12.27570199 851.55244534 C-12.26611449 863.6751222 -12.26762371 875.79767918 -12.28493668 887.92034812 C-12.29538776 896.01095204 -12.29138016 904.1014642 -12.27545664 912.19205902 C-12.26678401 916.80642184 -12.26449932 921.42054893 -12.27972596 926.03490006 C-12.29344303 930.23123879 -12.28881406 934.42713867 -12.26944077 938.62345145 C-12.26569952 940.13346848 -12.26868227 941.64352068 -12.27915386 943.15350604 C-12.53516793 954.34006856 -12.53516793 954.34006856 -7.76315689 964.13701439 C-2.69857229 968.98240663 2.3235768 968.70189351 8.9534874 968.64037895 C10.58201436 968.6490996 10.58201436 968.6490996 12.24344087 968.65799642 C15.9008071 968.672656 19.55750851 968.65868264 23.21487045 968.64494896 C25.85566469 968.64955551 28.4964123 968.65574224 31.13719368 968.66385794 C36.88870689 968.67831489 42.64006996 968.67786029 48.39159012 968.6676693 C56.94418728 968.65255623 65.49665749 968.66026548 74.04925376 968.67250253 C89.32301397 968.69358218 104.59670733 968.6917333 119.87047392 968.68018688 C133.23664306 968.67013191 146.60278767 968.66749446 159.96895981 968.67227745 C161.29792794 968.67273576 161.29792794 968.67273576 162.65374391 968.67320333 C166.25005487 968.67444865 169.84636581 968.67572224 173.44267675 968.67704239 C207.19145357 968.68928343 240.94018777 968.67817655 274.68895802 968.6566548 C304.68476026 968.63767181 334.68049458 968.6393703 364.67629623 968.65849876 C398.36262238 968.67990879 432.04891084 968.68841537 465.73524284 968.67604971 C469.32507069 968.6747668 472.91489855 968.67351545 476.50472641 968.67227745 C477.83062556 968.67180299 477.83062556 968.67180299 479.18331055 968.67131894 C492.54237193 968.66676553 505.9014061 968.67209669 519.26046371 968.68219566 C534.44753165 968.69361918 549.63452215 968.69080232 564.82158041 968.66907269 C573.32539966 968.65730741 581.82905132 968.65658967 590.3328663 968.67165739 C596.00873228 968.68060677 601.68446352 968.67508141 607.36030949 968.65763831 C610.5971826 968.64809679 613.83365434 968.64710752 617.07052875 968.65926224 C620.55407704 968.67134476 624.03669967 968.65903284 627.52019882 968.64037895 C628.52950274 968.64974362 629.53880665 968.65910828 630.57869554 968.66875672 C636.31546431 968.60693991 639.71474691 968.02678225 644.23684311 964.13701439 C647.96253569 960.00854424 649.36244491 957.06490344 649.35989094 951.53556347 C649.36188199 950.58559012 649.36387303 949.63561678 649.36592442 948.65685636 C649.36301158 947.61114789 649.36009874 946.56543943 649.35709763 945.48804283 C649.35795205 944.37883687 649.35880648 943.2696309 649.35968679 942.12681264 C649.36134062 938.39102062 649.35582176 934.655273 649.3503685 930.91948509 C649.35008658 928.24912476 649.35020037 925.5787672 649.350811 922.90840721 C649.35133584 917.1495098 649.34819328 911.3906237 649.34257317 905.63172913 C649.33445266 897.30529312 649.33184238 888.97886259 649.33058517 880.65242305 C649.32839552 867.14394714 649.32173778 853.63547726 649.31228256 840.12700462 C649.30310621 827.00330701 649.29602646 813.87961104 649.29177475 800.75591087 C649.29151203 799.94722324 649.2912493 799.13853561 649.29097862 798.30534229 C649.2896736 794.2484709 649.28840989 790.19159949 649.28716671 786.13472807 C649.2767968 752.46881914 649.25918084 718.8029175 649.23684311 685.13701439 C646.62776549 688.34676621 644.3960146 691.40880045 642.45949936 695.06670189 C641.69959702 696.48886009 641.69959702 696.48886009 640.92434311 697.93974876 C640.38809311 698.95359642 639.85184311 699.96744408 639.29934311 701.01201439 C634.87738504 709.27937137 630.38003771 717.49182708 625.73684311 725.63701439 C621.30678549 733.42010644 616.98098814 741.25102454 612.73684311 749.13701439 C608.03966748 757.86154545 603.2294168 766.51226569 598.33156967 775.12553978 C594.17625194 782.4446502 590.09240347 789.80094441 586.0338707 797.17397118 C584.99616279 799.05759749 583.95609682 800.93990233 582.91530991 802.82182884 C580.07583229 807.95939541 577.24382807 813.09856166 574.50246811 818.28935814 C573.91320541 819.38679344 573.91320541 819.38679344 573.31203842 820.50639915 C572.33835191 822.32266499 571.38041365 824.14735168 570.42434311 825.97295189 C565.65177006 832.87613791 558.52053658 837.53615706 551.73684311 842.32451439 C550.14093054 843.46393512 548.545895 844.60458514 546.95168686 845.74638939 C546.15875229 846.31422142 545.36581772 846.88205345 544.54885483 847.46709251 C541.09895034 849.95889259 537.69620575 852.51109549 534.29934311 855.07451439 C526.14573789 861.22098447 517.92669798 867.27624768 509.69973373 873.32402611 C507.18353322 875.17625698 504.67069371 877.03296478 502.15871811 878.89092064 C474.44758964 899.37961089 474.44758964 899.37961089 465.23684311 898.13701439 C461.42762731 896.85021596 458.8381049 895.02906421 456.55813217 891.64642906 C454.76188267 886.87549396 454.86398951 882.66413262 454.97121811 877.61137962 C454.98859024 876.08852301 454.98859024 876.08852301 455.00631332 874.53490162 C455.16699388 864.1848504 455.75478761 853.87042299 456.48684311 843.54717064 C456.58770721 842.10282048 456.58770721 842.10282048 456.69060898 840.62929153 C457.04651812 835.55257511 457.41298534 830.47674954 457.78811264 825.40141869 C458.16865514 820.22072846 458.50936323 815.03818763 458.84173203 809.85421658 C459.10907427 805.80369998 459.40688091 801.75581446 459.71255112 797.70802689 C459.85145089 795.79899692 459.97920307 793.88911607 460.0946312 791.97852325 C460.84131583 779.823127 462.96886463 770.42658751 469.20227051 759.89238167 C470.2971374 758.0347126 471.33684585 756.15317344 472.36791611 754.25942039 C474.25080249 750.80409155 476.17552979 747.37514934 478.11184311 743.94951439 C479.42536418 741.62468421 480.73449039 739.29754311 482.04153061 736.96904564 C482.60855698 735.96591331 483.17558334 734.96278099 483.75979233 733.92925072 C485.11256243 731.37195623 486.18642123 728.82819291 487.23684311 726.13701439 C485.9375578 726.13462604 484.6382725 726.13223768 483.29961491 726.12977695 C452.46637392 726.07243352 421.63321191 725.99971469 390.80005537 725.90802811 C387.00611711 725.89675977 383.21217848 725.88562134 379.41823959 725.87456322 C378.66292561 725.87235953 377.90761162 725.87015585 377.12940934 725.86788539 C364.89489656 725.83250023 352.66038386 725.80764298 340.42583887 725.78666737 C327.87472598 725.76491501 315.32367958 725.73186999 302.77262324 725.68831283 C295.0261619 725.66178632 287.27978342 725.64409833 279.5332789 725.63766835 C273.59610774 725.63179733 267.65905931 725.61022482 261.72194672 725.58273888 C259.28426102 725.5739255 256.8465507 725.57024285 254.40884972 725.57200623 C251.08667112 725.57365103 247.76507324 725.55702693 244.44297409 725.53574181 C242.98820552 725.54301317 242.98820552 725.54301317 241.50404769 725.55043143 C236.61221315 725.49852724 233.17454905 725.38107667 229.23684311 722.13701439 C225.2579732 716.78612037 225.45696592 710.52499718 226.23684311 704.13701439 C228.56654445 699.02959221 231.07187711 697.13780299 236.23684311 695.13701439 C239.87094942 694.71909096 243.47592249 694.76398033 247.13027573 694.80557823 C248.22964447 694.80598706 249.3290132 694.80639589 250.46169615 694.80681711 C254.14669198 694.81158202 257.83123527 694.83762318 261.51613998 694.86333275 C264.15751054 694.87068709 266.79885338 694.8767912 269.44022751 694.8811245 C275.12871647 694.89242414 280.8170991 694.91354881 286.50553513 694.94028091 C295.49699069 694.98156373 304.48834663 694.99063197 313.4798851 694.99432945 C316.55752953 694.99597559 319.63517384 694.99780452 322.71281815 694.99967098 C323.48187918 695.00012568 324.25094022 695.00058037 325.04330614 695.00104884 C333.79190812 695.00659517 342.54049799 695.01812444 351.2890892 695.03276634 C352.0885977 695.03409534 352.88810621 695.03542433 353.71184224 695.0367936 C366.67612958 695.05923824 379.64021503 695.10823516 392.60439414 695.16433042 C405.91848172 695.22102511 419.23226887 695.23948797 432.54646921 695.22492129 C440.75753353 695.21734444 448.96731448 695.24108964 457.17813885 695.30502314 C462.80315898 695.34617673 468.42746995 695.35104816 474.05258787 695.32731878 C477.29878309 695.31476921 480.54236345 695.32403156 483.78837395 695.36606979 C487.30855055 695.40918043 490.82325356 695.39099239 494.34341049 695.35733604 C495.36850582 695.38461987 496.39360114 695.41190369 497.44975996 695.4400143 C500.37027514 695.37345309 502.52153092 695.22365879 505.23684311 694.13701439 C507.92792614 691.08912036 509.57457564 687.82404151 511.23684311 684.13701439 C511.83222885 683.09633812 512.42761459 682.05566185 513.04104233 680.98344994 C513.53620346 680.08924339 514.03136459 679.19503685 514.54153061 678.27373314 C515.11645248 677.23732689 515.69137436 676.20092064 516.28371811 675.13310814 C516.88699936 674.0412722 517.49028061 672.94943626 518.11184311 671.82451439 C518.76535974 670.64475531 519.41900883 669.4650696 520.07278061 668.28545189 C525.48027987 658.52379222 530.86709312 648.75066171 536.25393295 638.97759056 C541.3462166 629.74064893 546.46534712 620.51881981 551.59231186 611.30107689 C556.15768576 603.08914648 560.70157519 594.86558963 565.23684311 586.63701439 C573.48547303 571.67220238 581.78507549 556.73592678 590.0913353 541.80303001 C597.16063127 529.09242842 604.21581655 516.37433133 611.23684311 503.63701439 C621.62050963 484.7993059 621.62050963 484.7993059 625.64271355 477.60192776 C626.55675448 475.95034766 627.45797635 474.2916734 628.35451698 472.63052845 C631.41440935 467.01621808 634.51495463 461.62042818 638.19291306 456.37851524 C651.21302139 437.04306031 651.27675534 419.35727837 650.75775218 396.65792871 C650.66247226 391.7696743 650.65505545 386.88120246 650.63737106 381.9921627 C650.59118086 372.78005489 650.46870204 363.57069236 650.31712872 354.35978097 C650.14809247 343.85430467 650.06665441 333.34868073 649.99169719 322.84217799 C649.83589227 301.27227152 649.57292818 279.70481746 649.23684311 258.13701439 C648.58768212 258.13462604 647.93852114 258.13223768 647.26968861 258.12977695 C631.39938486 258.07037691 615.52925252 257.99466988 599.65911579 257.90129948 C591.98411123 257.85652863 584.30915113 257.81707211 576.63405991 257.79057884 C569.93648727 257.76744584 563.23905761 257.73388079 556.54159874 257.68831283 C553.00255442 257.66458441 549.46364988 257.64572347 545.92452812 257.63940048 C516.5674381 257.57984916 490.17655914 255.05473672 467.94387436 233.60576439 C466.3594876 231.91960814 466.3594876 231.91960814 464.23684311 232.13701439 C463.97129623 231.54662376 463.70574936 230.95623314 463.43215561 230.34795189 C462.20594007 228.07985386 460.90332723 226.60349341 459.11184311 224.76201439 C444.28535417 208.11310285 438.77651524 185.83456274 438.80447006 164.0535183 C438.79542579 162.60318749 438.78509218 161.15286425 438.77358627 159.70255089 C438.74630243 155.81298717 438.7367713 151.92356957 438.7307322 148.03392267 C438.72127297 143.95131624 438.69506428 139.86881582 438.67072678 135.78627586 C438.62726383 128.07670733 438.59859338 120.36715962 438.57540339 112.65750635 C438.54824259 103.87131373 438.50433837 95.08522883 438.45911467 86.29911351 C438.36655823 68.24513757 438.2947456 50.1911331 438.23684311 32.13701439 C382.30262334 32.02262362 326.36841519 31.93449326 270.43410149 31.88168774 C263.83376192 31.87543405 257.23342257 31.86896245 250.63308334 31.86235619 C249.31904902 31.86104463 248.00501469 31.85973308 246.65116114 31.85838179 C225.3615794 31.83661252 204.07207717 31.7971826 182.78253316 31.75125041 C160.94501392 31.70452815 139.10753002 31.67672794 117.26996285 31.66657192 C103.78998038 31.659704 90.31018828 31.63799563 76.8302644 31.59743205 C67.59236988 31.57104596 58.3545741 31.56300404 49.11664461 31.5695075 C43.78311995 31.5727168 38.44992846 31.5677233 33.11646271 31.54098701 C28.2351201 31.5166954 23.35433542 31.51540032 18.47296739 31.53251991 C16.70568317 31.53463645 14.93836445 31.52825922 13.17114835 31.51259848 C10.77002262 31.4925548 8.37091531 31.50332896 5.96982098 31.52177525 C5.28229808 31.50864018 4.59477518 31.49550511 3.88641825 31.48197201 C-1.55848738 31.57661654 -5.01314782 33.35386972 -8.76315689 37.13701439 Z " fill="#000000" transform="translate(69.76315689086914,11.862985610961914)"/>
<path d="M0 0 C4.13144401 0.60003745 7.13777907 1.9799785 10.76171875 4.02734375 C11.87313232 4.6505249 12.9845459 5.27370605 14.12963867 5.91577148 C15.31565691 6.58956753 16.5016095 7.26347916 17.6875 7.9375 C18.89846168 8.61925121 20.10980857 9.30031864 21.3215332 9.98071289 C23.74215211 11.3408274 26.16089275 12.70418871 28.578125 14.0703125 C33.2687027 16.71545563 37.97687907 19.32827855 42.6875 21.9375 C44.12902263 22.73807173 45.57044256 23.53882844 47.01171875 24.33984375 C48.49091797 25.16162109 48.49091797 25.16162109 50 26 C49.32656845 29.35986426 48.05061581 32.00803564 46.41015625 35.0078125 C45.87817627 35.98540527 45.34619629 36.96299805 44.7980957 37.97021484 C44.22534912 39.01129395 43.65260254 40.05237305 43.0625 41.125 C42.4749292 42.20088379 41.8873584 43.27676758 41.28198242 44.38525391 C36.62076527 52.90750099 31.916264 61.40566887 27.1796875 69.88623047 C25.21850312 73.40028974 23.26595218 76.91913855 21.3125 80.4375 C20.47920905 81.93752355 19.64587391 83.43752254 18.8125 84.9375 C18.36777344 85.73800781 17.92304687 86.53851563 17.46484375 87.36328125 C12.5625 96.18749999 12.5625 96.18749999 10.71582031 99.51147461 C9.43646827 101.8143411 8.15717229 104.11723873 6.87792969 106.42016602 C3.67515246 112.18579609 0.47146641 117.95091656 -2.734375 123.71484375 C-9.17607671 135.29903045 -15.60144119 146.8919437 -22 158.5 C-30.24880648 173.46471517 -38.54823191 188.40108676 -46.85449219 203.33398438 C-54.26280002 216.65412965 -61.65283499 229.98400453 -69.00997925 243.3324585 C-74.4372637 253.17879604 -79.89048041 263.01046373 -85.35546875 272.8359375 C-89.92084265 281.04786791 -94.46473208 289.27142476 -99 297.5 C-107.24862992 312.46481201 -115.54823238 327.40108761 -123.85449219 342.33398438 C-131.26280002 355.65412965 -138.65283499 368.98400453 -146.00997925 382.3324585 C-151.43568342 392.17592906 -156.88656252 402.00515352 -162.35107422 411.82714844 C-165.5915426 417.65471694 -168.82335308 423.48686749 -172.0390625 429.328125 C-172.37677673 429.94154251 -172.71449097 430.55496002 -173.06243896 431.18696594 C-173.74443087 432.42579861 -174.42641737 433.66463426 -175.10839844 434.9034729 C-182.31258015 447.98895029 -189.61278076 461.01669342 -197 474 C-213.83731184 465.97528465 -229.95465741 456.4891811 -246 447 C-245.38267956 444.17321938 -244.51832189 441.81924676 -243.171875 439.26171875 C-242.79144043 438.53678223 -242.41100586 437.8118457 -242.01904297 437.06494141 C-241.60025879 436.28038574 -241.18147461 435.49583008 -240.75 434.6875 C-240.08508545 433.43332275 -240.08508545 433.43332275 -239.40673828 432.15380859 C-235.47076525 424.78048252 -231.36717982 417.50588046 -227.23461914 410.24145508 C-222.82553431 402.48530917 -218.49084893 394.69008274 -214.1875 386.875 C-213.85305878 386.26781128 -213.51861755 385.66062256 -213.17404175 385.03503418 C-211.4661656 381.9339378 -209.75916872 378.83235872 -208.05273438 375.73046875 C-204.68523767 369.60963765 -201.31166489 363.49215702 -197.9375 357.375 C-197.60616058 356.77419617 -197.27482117 356.17339233 -196.93344116 355.55438232 C-191.52375892 345.746278 -186.08880578 335.95239045 -180.64428711 326.16357422 C-176.0789504 317.9518311 -171.53518015 309.72841599 -167 301.5 C-158.75137008 286.53518799 -150.45176762 271.59891239 -142.14550781 256.66601562 C-134.73719998 243.34587035 -127.34716501 230.01599547 -119.99002075 216.6675415 C-114.5627363 206.82120396 -109.10951959 196.98953627 -103.64453125 187.1640625 C-99.07915735 178.95213209 -94.53526792 170.72857524 -90 162.5 C-81.75137008 147.53518799 -73.45176762 132.59891239 -65.14550781 117.66601562 C-58.07621184 104.95541403 -51.02102655 92.23731694 -44 79.5 C-36.36508302 65.64898311 -28.6879309 51.82166589 -21 38 C-18.63655244 33.7507062 -16.2735141 29.5011854 -13.91116333 25.25128174 C-12.97360713 23.56494417 -12.03552023 21.87890169 -11.09741211 20.19287109 C-7.36545255 13.47959477 -3.66689848 6.74903682 0 0 Z " fill="#05D49F" transform="translate(829,313)"/>
<path d="M0 0 C1.12711748 0.95963863 2.25332734 1.92034335 3.37915039 2.88150024 C4.32003258 3.68381797 4.32003258 3.68381797 5.27992249 4.50234413 C7.10525729 6.09164656 8.79503599 7.7460568 10.4375 9.5234375 C11.01435547 10.14347656 11.59121094 10.76351562 12.18554688 11.40234375 C12.78431641 12.05332031 13.38308594 12.70429687 14 13.375 C15.32281678 14.79957192 16.64573635 16.22404841 17.96875 17.6484375 C18.63777344 18.3712793 19.30679688 19.09412109 19.99609375 19.83886719 C23.1494476 23.2396333 26.32530673 26.61916865 29.5 30 C30.75011924 31.33322154 32.00011898 32.66655513 33.25 34 C33.86875 34.66 34.4875 35.32 35.125 36 C37.9375 39 37.9375 39 40.75 42 C41.36883057 42.66008057 41.98766113 43.32016113 42.62524414 44.00024414 C43.874452 45.33274337 45.12363822 46.66526288 46.37280273 47.99780273 C49.50974485 51.34406511 52.64706958 54.68996719 55.78515625 58.03515625 C62.44378881 65.13402898 69.09423635 72.24036893 75.73291016 79.35791016 C81.84657542 85.91083961 87.9773465 92.44768697 94.10888672 98.98388672 C97.86435675 102.98758818 101.61831569 106.99270651 105.37255859 110.99755859 C108.50959298 114.34389212 111.64699088 117.68988329 114.78515625 121.03515625 C121.43528418 128.12496206 128.08002826 135.21965264 134.70654297 142.33154297 C137.82991358 145.68200329 140.96217677 149.02368234 144.10546875 152.35546875 C144.78673828 153.07863281 145.46800781 153.80179688 146.16992188 154.546875 C147.48333902 155.94039406 148.79836199 157.33240192 150.11523438 158.72265625 C150.71013672 159.35429687 151.30503906 159.9859375 151.91796875 160.63671875 C152.44156982 161.19061279 152.9651709 161.74450684 153.50463867 162.31518555 C155.11935572 164.13447736 156.55063385 166.04761123 158 168 C144.1949714 168.11633985 130.39006127 168.2049408 116.5846405 168.25906086 C110.1727861 168.28504833 103.76126946 168.32024714 97.34960938 168.37719727 C91.15093714 168.43190503 84.95258784 168.46150193 78.75369263 168.47438622 C76.40002364 168.48355687 74.04637041 168.50146316 71.69284058 168.52865028 C49.18002329 168.7781417 32.28245289 165.33669009 15.2890625 149.44921875 C3.68563482 137.03394715 -0.33908515 121.77981739 -0.22705078 105.23803711 C-0.22734283 104.09555511 -0.22763489 102.95307312 -0.22793579 101.77597046 C-0.22655035 98.02634905 -0.21102605 94.27693014 -0.1953125 90.52734375 C-0.19157958 87.91703907 -0.18873393 85.30673298 -0.18673706 82.69642639 C-0.18054324 76.54493814 -0.16416112 70.39352175 -0.14403808 64.24206501 C-0.12161341 57.23353547 -0.1106692 50.22500234 -0.10064721 43.2164458 C-0.07979281 28.81092696 -0.04465804 14.40546449 0 0 Z " fill="#1089B1" transform="translate(540,70)"/>
<path d="M0 0 C1.113395 -0.00832352 1.113395 -0.00832352 2.24928284 -0.01681519 C4.68834212 -0.02856878 7.12552548 -0.00438257 9.56445312 0.02148438 C11.2678621 0.02319674 12.9712737 0.02312852 14.67468262 0.0213623 C18.23894579 0.0230131 21.80257815 0.04166626 25.36669922 0.07324219 C29.92640397 0.11291922 34.48528324 0.11728594 39.04512787 0.10977936 C42.56084706 0.10670406 46.07638204 0.11885002 49.59205627 0.13591003 C51.27290185 0.14292169 52.95376831 0.1460668 54.6346283 0.1452179 C56.98726856 0.14702359 59.33893524 0.1684698 61.69140625 0.1953125 C62.38041519 0.1923819 63.06942413 0.18945129 63.77931213 0.18643188 C69.0595865 0.27899263 72.97119 1.28221072 76.80589294 5.04991055 C80.6554461 9.75229085 81.05612835 13.83410842 80.9609375 19.76000977 C80.96648651 20.64872269 80.97203552 21.53743561 80.97775269 22.45307922 C80.98950728 25.37357498 80.96531828 28.29250476 80.93945312 31.21289062 C80.93774097 33.25117421 80.93780877 35.28945999 80.9395752 37.32774353 C80.93792438 41.59216479 80.91926839 45.85605882 80.88769531 50.12036133 C80.84799357 55.58016491 80.84365458 61.03927929 80.85115814 66.49919987 C80.85423068 70.70546252 80.84209757 74.9115709 80.82502747 79.11779594 C80.81800839 81.13078277 80.8148716 83.14378708 80.8157196 85.15678596 C80.81391748 87.97146212 80.79250085 90.78531939 80.765625 93.59985352 C80.7685556 94.42755249 80.77148621 95.25525146 80.77450562 96.10803223 C80.70250232 101.0070995 80.03029886 104.36048468 77.34570312 108.61523438 C72.07341257 113.48196412 68.38666035 114.86217939 61.22558594 114.92163086 C60.51608795 114.92995438 59.80658997 114.93827789 59.07559204 114.94685364 C56.73328128 114.97091967 54.39124937 114.97972259 52.04882812 114.98632812 C50.41461099 114.99529891 48.78039468 115.00442083 47.1461792 115.01368713 C43.71982836 115.03017175 40.29357515 115.03787594 36.8671875 115.04077148 C32.49129937 115.04614677 28.11633812 115.08379276 23.74071121 115.12951565 C20.36391919 115.15936483 16.98734793 115.16649678 13.61043549 115.16749763 C11.9981742 115.17168641 10.38591145 115.18406659 8.77378082 115.20501518 C-6.32501593 115.38555449 -6.32501593 115.38555449 -12.10528564 111.37294006 C-17.16620061 105.63018052 -18.24552054 100.98712737 -18.171875 93.56225586 C-18.17888428 92.68329651 -18.18589355 91.80433716 -18.19311523 90.89874268 C-18.21063337 88.01094403 -18.19909554 85.12413567 -18.18554688 82.23632812 C-18.18824332 80.22046217 -18.19212702 78.20459748 -18.19714355 76.18873596 C-18.20303002 71.97148205 -18.19450209 67.75456784 -18.17578125 63.53735352 C-18.15297769 58.13800023 -18.16612928 52.7394417 -18.19007111 47.34011745 C-18.2045395 43.18018121 -18.19991853 39.02043277 -18.18955994 34.8604908 C-18.1868963 32.86982186 -18.19014961 30.87913573 -18.19947815 28.88848686 C-18.20966244 26.10480575 -18.1941171 23.3224044 -18.171875 20.53881836 C-18.18402039 19.31129601 -18.18402039 19.31129601 -18.19641113 18.05897522 C-18.09464892 11.16776539 -15.71219076 7.72134669 -10.88269043 2.77868652 C-7.12074588 0.2576844 -4.37890019 -0.0842927 0 0 Z " fill="#010101" transform="translate(178.654296875,285.384765625)"/>
<path d="M0 0 C0.73250977 -0.00700928 1.46501953 -0.01401855 2.21972656 -0.02124023 C4.62604382 -0.03875584 7.03117209 -0.02722142 9.4375 -0.01367188 C11.11849186 -0.01636866 12.79948221 -0.02025264 14.48046875 -0.02526855 C17.99754743 -0.03115485 21.5142188 -0.02262896 25.03125 -0.00390625 C29.53052189 0.01888312 34.02883927 0.00575532 38.52807617 -0.01819611 C41.99746847 -0.03267779 45.46663594 -0.02803731 48.93603516 -0.01768494 C50.59456496 -0.01502418 52.25311544 -0.01826444 53.91162109 -0.02760315 C56.23329421 -0.03780834 58.55344011 -0.02221466 60.875 0 C62.19371094 0.00318237 63.51242188 0.00636475 64.87109375 0.00964355 C70.20345908 0.76908948 73.24690929 3.16609677 76.75 7.14257812 C79.80400342 11.44080516 79.5981225 14.94932748 79.61450195 20.07885742 C79.62107315 20.96523392 79.62764435 21.85161041 79.63441467 22.7648468 C79.6541735 25.70716431 79.66581729 28.64943066 79.67578125 31.59179688 C79.67985678 32.59622141 79.6839323 33.60064594 79.68813133 34.63550758 C79.70900516 39.9538617 79.72330002 45.27218993 79.73266602 50.59057617 C79.74372067 56.08068454 79.77810609 61.57038651 79.81783772 67.06035137 C79.84400522 71.28376511 79.85235809 75.50708217 79.85594749 79.73056984 C79.86081472 81.7539322 79.87243256 83.7772902 79.89098549 85.80057335 C79.91537481 88.63714965 79.91441197 91.47267677 79.9074707 94.30932617 C79.92028076 95.1412851 79.93309082 95.97324402 79.94628906 96.83041382 C79.89561902 102.52827645 78.73853481 105.84008499 75.4375 110.51757812 C68.08308071 116.06238912 59.26337364 115.09940896 50.4609375 115.04882812 C48.80522433 115.05152642 47.14951271 115.05541164 45.49380493 115.0604248 C42.03575447 115.06630075 38.57811915 115.05781666 35.12011719 115.0390625 C30.69712601 115.01623784 26.27510399 115.02942973 21.85214806 115.05335236 C18.43766014 115.06783163 15.02340072 115.06319529 11.60890579 115.05284119 C9.97828683 115.05018162 8.34764682 115.05341647 6.71705246 115.0627594 C4.43630002 115.07296475 2.15710201 115.05737258 -0.12353516 115.03515625 C-1.41844879 115.03197388 -2.71336243 115.0287915 -4.04751587 115.0255127 C-8.96607488 114.31475382 -11.80707461 112.59407406 -15.02241516 108.79064178 C-18.5725797 103.7342316 -19.28635233 99.55315237 -19.20947266 93.47460938 C-19.21823425 92.60847015 -19.22699585 91.74233093 -19.23602295 90.84994507 C-19.25788705 88.00946777 -19.24351085 85.17056904 -19.2265625 82.33007812 C-19.22993437 80.3428518 -19.23479008 78.3556275 -19.24105835 76.3684082 C-19.24841209 72.21252726 -19.23777247 68.05718526 -19.21435547 63.90136719 C-19.18586877 58.58839514 -19.20228078 53.27668614 -19.23221779 47.96376038 C-19.25033126 43.86290054 -19.24451416 39.76233754 -19.23157883 35.66146851 C-19.22825601 33.70315398 -19.23229212 31.74481203 -19.24397659 29.78652954 C-19.25675223 27.0438147 -19.2372156 24.30311272 -19.20947266 21.56054688 C-19.21959381 20.76031097 -19.22971497 19.96007507 -19.24014282 19.1355896 C-19.128881 13.164088 -17.42515989 9.08823642 -13.5625 4.51757812 C-9.08551315 0.62734905 -5.85989622 0.01414137 0 0 Z " fill="#000000" transform="translate(179.5625,462.482421875)"/>
<path d="M0 0 C0.7001825 -0.00700928 1.40036499 -0.01401855 2.12176514 -0.02124023 C4.41565684 -0.03871595 6.70829498 -0.02723479 9.00219727 -0.01367188 C10.60970799 -0.01637012 12.21721712 -0.02025531 13.82472229 -0.02526855 C17.18620412 -0.03114971 20.54725937 -0.0226469 23.90869141 -0.00390625 C28.20036827 0.0188645 32.49104334 0.00576404 36.78268337 -0.01819611 C40.10032078 -0.0327076 43.41772395 -0.02802345 46.73536873 -0.01768494 C48.31688622 -0.01503143 49.89842553 -0.01823859 51.47991753 -0.02760315 C66.87006126 -0.09873861 66.87006126 -0.09873861 73.63110352 4.51757812 C78.43992688 9.69631098 78.78618848 13.21514605 78.80810547 20.07885742 C78.81467667 20.96523392 78.82124786 21.85161041 78.82801819 22.7648468 C78.84777701 25.70716431 78.85942081 28.64943066 78.86938477 31.59179688 C78.87346029 32.59622141 78.87753582 33.60064594 78.88173485 34.63550758 C78.90260867 39.9538617 78.91690354 45.27218993 78.92626953 50.59057617 C78.93732419 56.08068454 78.9717096 61.57038651 79.01144123 67.06035137 C79.03760873 71.28376511 79.0459616 75.50708217 79.04955101 79.73056984 C79.05441824 81.7539322 79.06603608 83.7772902 79.084589 85.80057335 C79.10897832 88.63714965 79.10801549 91.47267677 79.10107422 94.30932617 C79.11388428 95.1412851 79.12669434 95.97324402 79.13989258 96.83041382 C79.0891097 102.54096473 78.1156918 105.92406151 74.63110352 110.51757812 C70.15345377 114.27095937 65.66428905 115.1113769 59.89501953 115.08276367 C58.78622437 115.10050591 58.78622437 115.10050591 57.6550293 115.11860657 C55.23138086 115.15128483 52.80886335 115.15445095 50.38500977 115.15429688 C48.68781586 115.16462294 46.9906263 115.17568741 45.29344177 115.18745422 C41.74368795 115.20684154 38.19432781 115.21032306 34.64453125 115.20385742 C30.11024191 115.19785888 25.57799805 115.24212295 21.04412937 115.29974651 C17.54116906 115.33683096 14.03869834 115.34164229 10.53556633 115.33747292 C8.86467774 115.34033361 7.19376764 115.35431904 5.5230732 115.37994957 C-9.12109678 115.58104497 -9.12109678 115.58104497 -14.33007812 111.34106445 C-19.48796626 106.08999679 -19.66951443 99.73177537 -19.67529297 92.79345703 C-19.68361649 91.93736343 -19.69194 91.08126984 -19.70051575 90.19923401 C-19.72452962 87.38082273 -19.73337681 84.56264322 -19.73999023 81.74414062 C-19.74896231 79.77647841 -19.75808426 77.80881687 -19.76734924 75.84115601 C-19.78381781 71.72058456 -19.79153561 67.60009418 -19.79443359 63.47949219 C-19.79981862 58.21141167 -19.83751305 52.94409744 -19.88317776 47.67623329 C-19.91298441 43.61318202 -19.92015792 39.55031463 -19.92115974 35.48716354 C-19.92535398 33.54556133 -19.93775615 31.60395817 -19.95867729 29.66246414 C-19.98566998 26.94123865 -19.98074347 24.22178129 -19.96826172 21.50048828 C-19.98309601 20.70646103 -19.9979303 19.91243378 -20.01321411 19.09434509 C-19.93620817 13.16973252 -18.31662235 8.98394331 -14.36889648 4.51757812 C-9.98327674 0.83353965 -5.64800958 0.01429733 0 0 Z " fill="#010101" transform="translate(180.368896484375,623.482421875)"/>
<path d="M0 0 C1.22116974 -0.00623996 2.44233949 -0.01247993 3.70051438 -0.01890898 C7.08282922 -0.0320933 10.46425425 -0.02736265 13.84651482 -0.0149641 C17.49691508 -0.00591034 21.14723784 -0.019885 24.79762268 -0.03088379 C31.94605305 -0.04867071 39.09431542 -0.04482815 46.24275237 -0.03323323 C52.05301371 -0.02419913 57.86322798 -0.0229748 63.67349434 -0.02732849 C64.50049335 -0.02794142 65.32749236 -0.02855436 66.17955195 -0.02918586 C67.85960564 -0.03046477 69.53965932 -0.03176162 71.21971298 -0.03307623 C86.9741481 -0.04448271 102.72849013 -0.03136763 118.48290998 -0.00987476 C131.99842401 0.00799298 145.5138006 0.00489494 159.02931213 -0.0135498 C174.72587426 -0.03496103 190.42235476 -0.04338058 206.11892945 -0.03110075 C207.79310325 -0.02982656 209.46727706 -0.02856908 211.14145088 -0.02732849 C212.37702197 -0.02640284 212.37702197 -0.02640284 213.63755409 -0.02545848 C219.43974958 -0.02200609 225.24189327 -0.02783161 231.04408073 -0.0372467 C238.11669231 -0.04847102 245.18912634 -0.04541776 252.26171761 -0.02412373 C255.86972563 -0.01361851 259.47743774 -0.00948213 263.0854435 -0.02272034 C266.99772174 -0.0368577 270.90951653 -0.01996546 274.82177734 0 C275.96068828 -0.00892289 277.09959921 -0.01784577 278.27302259 -0.02703905 C284.74024138 0.03709981 288.71817407 0.64772693 293.97438049 4.50793457 C297.66070933 8.28878466 298.27799429 11.38922326 298.47438049 16.50793457 C298.28438507 21.62514451 297.60271713 24.68863285 293.97438049 28.50793457 C288.40309349 33.4519653 283.12165899 33.07208012 275.90406799 33.01586914 C274.0651297 33.02522908 274.0651297 33.02522908 272.18904114 33.03477812 C268.79339535 33.0479627 265.39863586 33.04323162 262.00304413 33.03083324 C258.33834805 33.02177974 254.67372919 33.03575394 251.00904846 33.04675293 C243.83287983 33.0645396 236.65687854 33.06069756 229.48070335 33.04910237 C223.64850364 33.04006888 217.81635082 33.03884367 211.98414612 33.04319763 C211.15408302 33.04381056 210.32401993 33.0444235 209.46880341 33.045055 C207.78254698 33.0463339 206.09629057 33.04763076 204.41003418 33.04894537 C188.59792543 33.06035159 172.78590945 33.0472368 156.97381592 33.0257439 C143.40624932 33.00787287 129.83881962 33.01097697 116.27125549 33.02941895 C100.5157394 33.05082491 84.76030461 33.05925295 69.004776 33.04696989 C67.3247223 33.04569569 65.64466859 33.04443821 63.96461487 33.04319763 C63.13799599 33.04258053 62.31137711 33.04196343 61.45970917 33.04132763 C55.63450163 33.0378739 49.80934567 33.04370355 43.98414612 33.05311584 C36.88515575 33.06433418 29.7863423 33.06129936 22.68737221 33.03999287 C19.06531156 33.0294801 15.44354589 33.0253642 11.82148743 33.03858948 C7.89572246 33.0527069 3.97044054 33.03585066 0.04469299 33.01586914 C-1.67387909 33.02925347 -1.67387909 33.02925347 -3.4271698 33.04290819 C-9.61676875 32.98160961 -13.33015134 32.67475256 -18.02561951 28.50793457 C-21.65395614 24.68863285 -22.33562409 21.62514451 -22.52561951 16.50793457 C-22.33562409 11.39072463 -21.65395614 8.32723629 -18.02561951 4.50793457 C-12.460957 -0.4244625 -7.20736715 -0.0563563 0 0 Z " fill="#000000" transform="translate(317.02561950683594,544.4920654296875)"/>
<path d="M0 0 C1.05537382 -0.00782324 2.11074763 -0.01564648 3.19810247 -0.02370679 C4.35130311 -0.01701463 5.50450374 -0.01032246 6.69264984 -0.00342751 C7.9225434 -0.00810748 9.15243695 -0.01278745 10.41960001 -0.01760924 C13.83069898 -0.02750797 17.24130272 -0.02394142 20.65237164 -0.01465058 C24.33204942 -0.00786736 28.01168369 -0.0183377 31.69135284 -0.02659035 C38.89871557 -0.03993766 46.10598462 -0.03704552 53.31335104 -0.02835242 C59.17036736 -0.02158021 65.02735741 -0.02065716 70.88437653 -0.02392387 C71.7176392 -0.02438357 72.55090186 -0.02484327 73.40941492 -0.0253169 C75.1021156 -0.02627607 76.79481627 -0.02724871 78.48751694 -0.02823468 C94.36395569 -0.03679149 110.24034248 -0.02694987 126.11677271 -0.01083358 C139.74263635 0.00256987 153.36842332 0.00024186 166.99428558 -0.01358986 C182.81349942 -0.02964053 198.63266772 -0.03596749 214.45188856 -0.02675307 C216.13839943 -0.02579741 217.82491032 -0.0248543 219.5114212 -0.02392387 C220.75614924 -0.02322963 220.75614924 -0.02322963 222.0260233 -0.02252137 C227.87672735 -0.01992994 233.72740253 -0.02430577 239.57810211 -0.03136253 C246.70712661 -0.03977203 253.836052 -0.03750902 260.96506512 -0.0215203 C264.60315349 -0.01363012 268.24107655 -0.01055859 271.87916374 -0.02046776 C275.8205855 -0.03104086 279.76173591 -0.01842531 283.70314789 -0.00342751 C284.85634852 -0.01011967 286.00954915 -0.01681184 287.19769526 -0.02370679 C288.25306907 -0.01588355 289.30844289 -0.00806031 290.39579773 0 C291.76043411 0.00073059 291.76043411 0.00073059 293.15263891 0.00147593 C297.51778882 0.64640168 300.08553293 2.68010666 302.94789886 5.94002342 C306.33637041 10.65968022 306.27233284 14.68313441 305.69789886 20.37752342 C304.69762904 24.12375692 303.24901839 27.17756248 300.13231999 29.58867025 C293.99773403 32.88835359 288.36877765 32.93975403 281.50769806 32.88545799 C280.29298657 32.89169796 279.07827508 32.89793792 277.82675415 32.90436697 C274.47175701 32.91752236 271.11766088 32.9128415 267.76271927 32.9004221 C264.1382577 32.89134982 260.51387329 32.90535202 256.88942719 32.91634178 C249.79608169 32.93410792 242.7029057 32.93029572 235.60955363 32.91869122 C229.84415314 32.90965036 224.07880009 32.90843571 218.31339455 32.91278648 C217.49221724 32.91339942 216.67103993 32.91401235 215.82497846 32.91464385 C214.15668184 32.91592278 212.48838523 32.91721963 210.82008863 32.91853422 C195.18486762 32.92993425 179.54974049 32.91683501 163.91453487 32.89533275 C150.50251351 32.87745894 137.09063063 32.88056931 123.67861176 32.8990078 C108.09703243 32.92041896 92.51553531 32.92883918 76.93394333 32.91655874 C75.27215804 32.91528457 73.61037273 32.91402708 71.94858742 32.91278648 C71.13099155 32.91216938 70.31339569 32.91155228 69.4710242 32.91091648 C63.71288812 32.90746456 57.95480425 32.91328843 52.19667625 32.9227047 C45.17900934 32.93392866 38.16152137 32.93087623 31.14387494 32.90958172 C27.56420596 32.89907704 23.98483523 32.89493928 20.40516853 32.90817833 C16.52364943 32.92231657 12.64261756 32.90542287 8.76111603 32.88545799 C7.63135123 32.89438088 6.50158644 32.90330377 5.33758634 32.91249704 C-2.5165591 32.83399121 -7.05217674 31.62744782 -12.73960114 25.94002342 C-15.13838566 20.4707947 -15.04236401 15.25476203 -14.30210114 9.37752342 C-11.3477291 3.03109461 -7.00475361 0.00375014 0 0 Z " fill="#010101" transform="translate(309.3021011352539,367.6224765777588)"/>
<path d="M0 0 C1.05960938 0.56589844 2.11921875 1.13179688 3.2109375 1.71484375 C4.59895102 2.45574286 5.98697226 3.19662753 7.375 3.9375 C8.42300781 4.49727539 8.42300781 4.49727539 9.4921875 5.06835938 C13.22879122 7.06747892 13.22879122 7.06747892 17 9 C16.32656845 12.35986426 15.05061581 15.00803564 13.41015625 18.0078125 C12.87817627 18.98540527 12.34619629 19.96299805 11.7980957 20.97021484 C10.93897583 22.5318335 10.93897583 22.5318335 10.0625 24.125 C9.4749292 25.20088379 8.8873584 26.27676758 8.28198242 27.38525391 C3.62076527 35.90750099 -1.083736 44.40566887 -5.8203125 52.88623047 C-7.78149688 56.40028974 -9.73404782 59.91913855 -11.6875 63.4375 C-12.52079095 64.93752355 -13.35412609 66.43752254 -14.1875 67.9375 C-14.63222656 68.73800781 -15.07695313 69.53851563 -15.53515625 70.36328125 C-20.4375 79.1875 -20.4375 79.1875 -22.28417969 82.51147461 C-23.56353173 84.8143411 -24.84282771 87.11723873 -26.12207031 89.42016602 C-29.32484754 95.18579609 -32.52853359 100.95091656 -35.734375 106.71484375 C-42.17607671 118.29903045 -48.60144119 129.8919437 -55 141.5 C-63.24880648 156.46471517 -71.54823191 171.40108676 -79.85449219 186.33398438 C-87.26280002 199.65412965 -94.65283499 212.98400453 -102.00997925 226.3324585 C-107.4372637 236.17879604 -112.89048041 246.01046373 -118.35546875 255.8359375 C-122.92084265 264.04786791 -127.46473208 272.27142476 -132 280.5 C-140.24862992 295.46481201 -148.54823238 310.40108761 -156.85449219 325.33398438 C-164.26280002 338.65412965 -171.65283499 351.98400453 -179.00997925 365.3324585 C-184.43568342 375.17592906 -189.88656252 385.00515352 -195.35107422 394.82714844 C-198.5915426 400.65471694 -201.82335308 406.48686749 -205.0390625 412.328125 C-205.54563385 413.24825127 -205.54563385 413.24825127 -206.06243896 414.18696594 C-206.74443087 415.42579861 -207.42641737 416.66463426 -208.10839844 417.9034729 C-215.31258015 430.98895029 -222.61278076 444.01669342 -230 457 C-232.27208206 455.8774654 -234.54267645 454.75208479 -236.8125 453.625 C-237.45509766 453.30789063 -238.09769531 452.99078125 -238.75976562 452.6640625 C-241.63194461 451.23541389 -244.3267821 449.78214527 -247 448 C-245.72701932 443.85871685 -244.17498763 440.22950386 -242.05078125 436.45703125 C-241.45789307 435.39758301 -240.86500488 434.33813477 -240.25415039 433.24658203 C-239.61340576 432.11333496 -238.97266113 430.98008789 -238.3125 429.8125 C-237.63673782 428.60821895 -236.96153654 427.403623 -236.28686523 426.19873047 C-234.88680084 423.69944197 -233.48434775 421.20151784 -232.08007812 418.70458984 C-228.88690784 413.02288638 -225.72553631 407.32351612 -222.5625 401.625 C-221.94737549 400.51809814 -221.33225098 399.41119629 -220.69848633 398.27075195 C-215.77772609 389.41287287 -210.88116018 380.54179315 -205.99002075 371.6675415 C-200.5627363 361.82120396 -195.10951959 351.98953627 -189.64453125 342.1640625 C-185.07915767 333.95213267 -180.53517099 325.72862827 -176 317.5 C-170.23645383 307.04260399 -164.44854703 296.59907191 -158.64453125 286.1640625 C-154.07915735 277.95213209 -149.53526792 269.72857524 -145 261.5 C-136.75137008 246.53518799 -128.45176762 231.59891239 -120.14550781 216.66601562 C-112.73719998 203.34587035 -105.34716501 190.01599547 -97.99002075 176.6675415 C-92.5627363 166.82120396 -87.10951959 156.98953627 -81.64453125 147.1640625 C-77.07915735 138.95213209 -72.53526792 130.72857524 -68 122.5 C-59.75137008 107.53518799 -51.45176762 92.59891239 -43.14550781 77.66601562 C-41.28411406 74.3192277 -39.42314142 70.97220624 -37.5625 67.625 C-36.94697266 66.51769531 -36.33144531 65.41039062 -35.69726562 64.26953125 C-30.75801326 55.37784906 -25.84654146 46.47104438 -20.93875122 37.5619812 C-14.02056718 25.0067898 -7.02390209 12.49635991 0 0 Z " fill="#0AA97C" transform="translate(862,330)"/>
<path d="M0 0 C0.33 0 0.66 0 1 0 C1.0686542 34.42165507 1.12152272 68.84329453 1.15319599 103.26500327 C1.15694815 107.32803615 1.16083111 111.39106889 1.16479492 115.45410156 C1.16558185 116.2629843 1.16636878 117.07186704 1.16717956 117.90526138 C1.18023643 131.00564481 1.20389182 144.10598878 1.23145839 157.20634879 C1.25950478 170.64674279 1.27617464 184.08711612 1.28226548 197.52753818 C1.28638352 205.82219597 1.29939389 214.11674222 1.3237494 222.41136567 C1.33959713 228.09792458 1.34440255 233.78442576 1.34050413 239.47100516 C1.33858107 242.75276757 1.34318182 246.03429362 1.35761642 249.3160305 C1.37250244 252.87426522 1.36896737 256.43201947 1.36076355 259.99026489 C1.36950207 261.02723483 1.3782406 262.06420477 1.38724393 263.13259804 C1.34893665 269.26332298 0.8435579 273.95384764 -3.53515625 278.64453125 C-7.43815057 281.62917396 -9.47543383 283.12515134 -14.35209572 283.1241985 C-15.27397732 283.12644579 -16.19585891 283.12869308 -17.14567631 283.13100848 C-18.16720337 283.12838146 -19.18873042 283.12575445 -20.24121284 283.12304783 C-21.32407969 283.12420167 -22.40694654 283.12535552 -23.52262753 283.12654433 C-27.19422803 283.12921613 -30.86578571 283.1246842 -34.53738403 283.12025452 C-37.17898352 283.1206901 -39.82058015 283.12152242 -42.46217906 283.12284368 C-48.22768141 283.12492207 -53.99317347 283.12326574 -59.75867462 283.11920547 C-68.33184075 283.11318467 -76.90500036 283.11286834 -85.47816822 283.11374746 C-99.89773103 283.1150632 -114.31728926 283.111713 -128.73685074 283.10573006 C-143.01998034 283.09981887 -157.30310804 283.09596529 -171.58623886 283.09487724 C-172.91692555 283.09477413 -172.91692555 283.09477413 -174.2744948 283.09466894 C-178.77950563 283.09433062 -183.28451645 283.09402923 -187.78952728 283.09374207 C-219.72247912 283.09164004 -251.65542847 283.08489819 -283.58837891 283.07543945 C-314.61637356 283.06625936 -345.64436754 283.05917362 -376.67236328 283.05493164 C-377.62829601 283.05480011 -378.58422874 283.05466859 -379.56912913 283.05453308 C-389.16874584 283.05321459 -398.76836255 283.05193877 -408.36797927 283.05069422 C-427.92458997 283.04815781 -447.48120064 283.04533655 -467.03781128 283.04234314 C-467.93704961 283.04220585 -468.83628794 283.04206856 -469.76277592 283.04192711 C-529.84185165 283.03272196 -589.92092599 283.01687624 -650 283 C-650 282.67 -650 282.34 -650 282 C-446.72 282 -243.44 282 -34 282 C-32.28350507 275.73593357 -32.28350507 275.73593357 -31.75111103 269.69470406 C-31.74651223 268.93804581 -31.74191344 268.18138756 -31.73717529 267.40180027 C-31.74231885 266.59769526 -31.74746241 265.79359024 -31.75276184 264.96511841 C-31.74914022 263.65228703 -31.74914022 263.65228703 -31.74544543 262.3129338 C-31.7398381 259.39881207 -31.74844889 256.48491245 -31.75708008 253.57080078 C-31.7560065 251.47436972 -31.7540667 249.37793895 -31.75132751 247.2815094 C-31.74648988 241.60224845 -31.75412011 235.92306636 -31.76428056 230.24381495 C-31.77307307 224.30169421 -31.77130342 218.35957586 -31.7709198 212.41744995 C-31.77185553 202.44592979 -31.78052949 192.47444011 -31.79418945 182.50292969 C-31.80993983 170.96255037 -31.81518662 159.42220437 -31.8144539 147.88181508 C-31.81384446 136.78554326 -31.81894055 125.68928232 -31.82724571 114.59301376 C-31.83078261 109.86656484 -31.83260953 105.14011977 -31.83313942 100.41366959 C-31.83414094 94.8568925 -31.84022188 89.30014358 -31.85030556 83.74337578 C-31.85323579 81.69948817 -31.85445488 79.65559732 -31.85387802 77.61170769 C-31.85339022 74.83210137 -31.85901432 72.05257496 -31.86628723 69.27297974 C-31.86473863 68.45549039 -31.86319003 67.63800104 -31.8615945 66.79573929 C-31.78574372 62.76725284 -31.78574372 62.76725284 -33 59 C-31.97460938 56.72290039 -31.97460938 56.72290039 -30.34375 53.84765625 C-29.74014648 52.77338379 -29.13654297 51.69911133 -28.51464844 50.59228516 C-27.84320438 49.41562994 -27.17165223 48.2390364 -26.5 47.0625 C-25.81980884 45.85772688 -25.14045743 44.65247929 -24.46191406 43.44677734 C-23.03963028 40.92088127 -21.61366036 38.39711579 -20.18554688 35.87451172 C-18.02590249 32.05348205 -15.89185028 28.21861273 -13.765625 24.37890625 C-13.42635986 23.76634476 -13.08709473 23.15378326 -12.73754883 22.5226593 C-11.7414691 20.72356681 -10.74573104 18.9242855 -9.75 17.125 C-8.51667075 14.89785807 -7.28236811 12.67125477 -6.046875 10.4453125 C-5.52963867 9.51219238 -5.01240234 8.57907227 -4.47949219 7.61767578 C-1.5767718 2.48187247 -1.5767718 2.48187247 0 0 Z " fill="#D0D0D0" transform="translate(718,697)"/>
<path d="M0 0 C1.18987676 -0.0083016 1.18987676 -0.0083016 2.40379143 -0.0167709 C5.0470249 -0.03032349 7.68930524 -0.01543799 10.33251953 -0.00050354 C12.23350423 -0.00428868 14.13448617 -0.00979033 16.03546143 -0.01687622 C21.18836274 -0.03082257 26.34092985 -0.0196667 31.49381256 -0.00316501 C36.89040887 0.01069988 42.28698605 0.00422377 47.68359375 0.0007019 C56.74566016 -0.00199907 65.80759403 0.01146579 74.86962891 0.03465271 C85.34146851 0.06126169 95.81308653 0.06300909 106.28494835 0.05126435 C116.36514491 0.04047915 126.44526145 0.04667949 136.52545166 0.06081963 C140.81237686 0.06657297 145.09924338 0.06650186 149.38616943 0.06175423 C154.43579298 0.0569763 159.48517439 0.06712006 164.53475189 0.08870888 C166.38625014 0.09426578 168.2377717 0.09475213 170.08927155 0.08975601 C172.62000297 0.08378426 175.1499988 0.09634421 177.68066406 0.11352539 C178.77518292 0.10451032 178.77518292 0.10451032 179.89181328 0.09531313 C185.46391865 0.16392751 190.31371621 1.27483769 194.58251953 5.03636169 C199.01864297 11.01747985 199.61577543 15.08209835 198.84033203 22.50120544 C197.02783203 26.00120544 197.02783203 26.00120544 194.84033203 28.50120544 C194.36595703 29.07870544 193.89158203 29.65620544 193.40283203 30.25120544 C189.03287009 33.747175 184.2603035 33.7929175 178.88993835 33.77536011 C178.09501805 33.78059679 177.30009774 33.78583346 176.48108894 33.79122883 C173.82043075 33.80621708 171.15996507 33.80693372 168.49926758 33.80760193 C166.59034908 33.8152242 164.68143365 33.82365181 162.77252197 33.83282471 C157.588556 33.85476975 152.40464902 33.86356861 147.22064185 33.86865115 C143.98107501 33.87229467 140.74152362 33.87853471 137.50196266 33.88565254 C126.19783474 33.91014691 114.89375271 33.92319894 103.58959961 33.92674255 C93.05641327 33.93037796 82.52351829 33.96027381 71.990421 34.00214714 C62.94397537 34.03684831 53.89762631 34.05229096 44.85111457 34.05298859 C39.44947155 34.05378145 34.04812533 34.06252448 28.64655113 34.09098625 C23.564868 34.1171638 18.48372784 34.11937368 13.40200806 34.10333061 C11.5396233 34.10151589 9.67720733 34.1082089 7.81488991 34.12414932 C-9.6672644 34.26463409 -9.6672644 34.26463409 -16.15966797 28.50120544 C-20.22931754 23.28696693 -19.92486079 16.831437 -19.15966797 10.50120544 C-15.47250437 2.24195899 -8.4969639 -0.11184832 0 0 Z " fill="#050505" transform="translate(314.15966796875,477.49879455566406)"/>
<path d="M0 0 C0.79956057 -0.00297112 1.59912113 -0.00594224 2.42291081 -0.0090034 C5.1051221 -0.01768284 7.78728872 -0.019198 10.46951294 -0.02069092 C12.39137874 -0.02531956 14.31324361 -0.03034428 16.23510742 -0.03573608 C21.45824699 -0.04885612 26.68137371 -0.05530407 31.90452719 -0.05974674 C35.16701652 -0.06267762 38.42950234 -0.06678242 41.6919899 -0.07125092 C51.89764066 -0.08492372 62.10328339 -0.0945919 72.30894268 -0.09845281 C84.09385874 -0.1029356 95.87865894 -0.12049471 107.66353977 -0.1494534 C116.77107223 -0.17105726 125.87857206 -0.18115637 134.98612988 -0.18249393 C140.4267714 -0.18354272 145.86730398 -0.18946662 151.30791855 -0.20731354 C156.42476481 -0.22377216 161.54141996 -0.22596044 166.65828323 -0.21717453 C168.5360134 -0.21640302 170.41375375 -0.22076186 172.29145813 -0.23063278 C174.85550378 -0.24332114 177.41886932 -0.23749259 179.98291016 -0.22705078 C180.72533049 -0.23510719 181.46775083 -0.24316359 182.23266876 -0.25146413 C186.9330648 -0.2067173 190.12242333 0.67046487 194.11843872 3.14044189 C198.60037307 7.86464296 199.51281179 11.50204563 199.39187622 17.98419189 C198.90537933 21.82056734 197.60506607 25.17393909 195.11843872 28.14044189 C189.96039337 31.6313948 186.09976961 32.72367181 179.83815002 32.64837646 C179.03194263 32.65461643 178.22573524 32.66085639 177.39509732 32.66728544 C174.70809311 32.68317209 172.02200153 32.67062854 169.33499146 32.65802002 C167.40282667 32.66344303 165.47066602 32.67056669 163.53851318 32.67926025 C158.30098516 32.697474 153.06377279 32.69043436 147.82623935 32.67774391 C142.34241821 32.66760766 136.85862385 32.6770112 131.37480164 32.68328857 C122.1673091 32.69056253 112.95994496 32.6809832 103.75247192 32.66192627 C93.10902702 32.64015161 82.46588855 32.64721431 71.82245106 32.66923189 C62.68086387 32.68738531 53.5393689 32.68994467 44.39776951 32.67947721 C38.93928158 32.67324282 33.48093769 32.67240538 28.02245903 32.68562317 C22.89153194 32.69718035 17.76099993 32.68915814 12.63011551 32.66604614 C10.747557 32.66075866 8.86496522 32.6622735 6.98241997 32.6710968 C4.41174622 32.68203424 1.84233703 32.66831117 -0.72825623 32.64837646 C-1.84465362 32.6617608 -1.84465362 32.6617608 -2.98360449 32.67541552 C-9.37090102 32.57939329 -12.90356618 30.1704895 -17.25656128 25.70294189 C-19.76426669 20.20528003 -19.97015878 15.06644948 -18.88156128 9.14044189 C-16.85546483 5.48573931 -14.32112577 2.00703738 -10.25404167 0.56230545 C-6.84175503 -0.04445167 -3.45400483 -0.00400711 0 0 Z " fill="#000000" transform="translate(313.8815612792969,639.8595581054688)"/>
<path d="M0 0 C0.80394184 -0.00694553 1.60788368 -0.01389106 2.43618739 -0.02104706 C5.12161228 -0.0392974 7.80615178 -0.02905842 10.49160767 -0.01878357 C12.42038127 -0.0258431 14.34914932 -0.03458827 16.27790833 -0.04489136 C21.51148513 -0.06739279 26.74475962 -0.06444356 31.97836637 -0.05556989 C36.34962663 -0.05045906 40.72083012 -0.05775346 45.09208453 -0.06504196 C55.4061362 -0.08204385 65.72003995 -0.07847271 76.03408813 -0.06175232 C86.66899901 -0.04483449 97.30349932 -0.06066037 107.93836534 -0.0929752 C117.07402308 -0.11968133 126.2095531 -0.1269442 135.34524596 -0.11846012 C140.79938277 -0.11353345 146.25327262 -0.11573248 151.70737839 -0.13624763 C156.83753889 -0.15462037 161.96710961 -0.14862627 167.09723854 -0.12404823 C168.97734725 -0.11904523 170.85750101 -0.12251681 172.73757362 -0.13519669 C175.31001675 -0.15117018 177.88052788 -0.13613737 180.45288086 -0.11352539 C181.19200222 -0.12536112 181.93112359 -0.13719685 182.69264257 -0.14939123 C188.37564439 -0.04831923 192.50693346 1.83946168 196.85342407 5.5146637 C199.73339482 10.28461525 200.8077998 14.99816223 199.85342407 20.5146637 C198.2339025 25.14898696 196.28957851 29.08193384 191.85342407 31.5146637 C188.20476056 32.73088487 184.85310271 32.662764 181.05415344 32.66183472 C180.25136375 32.6655114 179.44857405 32.66918809 178.6214574 32.6729762 C175.92232463 32.6840191 173.22323035 32.68785788 170.52407837 32.69166565 C168.5925077 32.69792977 166.66093825 32.70457652 164.72937012 32.71157837 C159.47518443 32.72899106 154.22100784 32.73954056 148.96680045 32.7477839 C145.68538807 32.75293279 142.40397852 32.75900853 139.12256813 32.76529503 C128.85925106 32.78434665 118.59594119 32.79857865 108.33260983 32.806907 C96.47859943 32.81668459 84.62477549 32.84301794 72.77083081 32.88340789 C63.61236431 32.91354474 54.45395134 32.92837351 45.2954362 32.93168801 C39.82344183 32.93404098 34.35164669 32.94303375 28.87970543 32.96814919 C23.73246438 32.99139278 18.58555427 32.99567805 13.43827438 32.9853878 C11.54925118 32.98489145 9.66021189 32.99124102 7.77123833 33.00494385 C5.19164272 33.02260943 2.61324166 33.01558334 0.03364563 33.00241089 C-1.08684448 33.01886476 -1.08684448 33.01886476 -2.22997075 33.03565103 C-7.34237636 32.97265028 -10.19297833 31.70156895 -14.14657593 28.5146637 C-17.77491256 24.69536198 -18.45658051 21.63187364 -18.64657593 16.5146637 C-18.45658051 11.39745376 -17.77491256 8.33396542 -14.14657593 4.5146637 C-9.47705486 0.75664413 -5.84438242 -0.06477045 0 0 Z " fill="#000000" transform="translate(313.1465759277344,300.48533630371094)"/>
<path d="M0 0 C10.56 0 21.12 0 32 0 C32.29466155 22.66348343 32.53361809 45.32539088 32.67355824 67.99031067 C32.74029259 78.51654147 32.83109479 89.04148847 32.98071289 99.56689453 C33.11121933 108.75228705 33.19437348 117.93674903 33.22315043 127.12304306 C33.23994571 131.97746926 33.27875193 136.82923604 33.37449074 141.68280029 C33.78835588 163.50166101 33.67168939 180.40356327 20.51703453 198.84006691 C18.44140835 201.79531518 16.7649855 204.87594332 15.0625 208.05859375 C14.04401079 209.85289511 13.02334828 211.64596548 12 213.4375 C10.95802645 215.26935673 9.9163553 217.1013855 8.875 218.93359375 C8.39546875 219.77647949 7.9159375 220.61936523 7.421875 221.48779297 C5.25742854 225.31199524 3.1254798 229.15403365 1 233 C0.67 233 0.34 233 0 233 C0 156.11 0 79.22 0 0 Z " fill="#D2D2D2" transform="translate(687,270)"/>
<path d="M0 0 C8.05901232 4.51074843 14.52723275 11.29689555 17.19140625 20.2265625 C18.90755061 31.15731984 13.71972463 39.48253536 8.75390625 48.8515625 C8.32779053 49.65859619 7.9016748 50.46562988 7.46264648 51.29711914 C3.47636455 58.79127214 -0.69376369 66.17797688 -4.89111328 73.55541992 C-10.29699258 83.05785432 -15.56793925 92.63223148 -20.80859375 102.2265625 C-37.64590559 94.20184715 -53.76325116 84.7157436 -69.80859375 75.2265625 C-69.21293069 71.24769482 -67.97005213 68.34331424 -65.9921875 64.8515625 C-65.40042725 63.79751221 -64.80866699 62.74346191 -64.19897461 61.6574707 C-63.23229858 59.95917114 -63.23229858 59.95917114 -62.24609375 58.2265625 C-61.23041995 56.42690236 -60.21694965 54.6260132 -59.20362854 52.82502747 C-58.49677206 51.56903552 -57.78910662 50.31349855 -57.08067322 49.05839539 C-54.50308548 44.48557871 -51.97338879 39.88834618 -49.46484375 35.27734375 C-48.7520909 33.97067236 -48.03928222 32.66403143 -47.32641602 31.35742188 C-46.29587431 29.46808044 -45.2670767 27.57791276 -44.24435425 25.68432617 C-34.66426851 7.95942051 -22.83617368 -8.99989165 0 0 Z " fill="#ED466E" transform="translate(948.80859375,150.7734375)"/>
<path d="M0 0 C4.2706472 1.30587746 7.99926094 2.94742141 11.89453125 5.125 C13.00787842 5.7449585 14.12122559 6.36491699 15.26831055 7.00366211 C16.4498434 7.66886591 17.63123748 8.33431626 18.8125 9 C20.0217618 9.67674509 21.23115385 10.35325747 22.44067383 11.02954102 C31.70485663 16.22124288 40.89137513 21.53996393 50 27 C47.71311358 32.82116542 44.39873485 35.45355761 39.5 39 C38.75242432 39.5561499 38.00484863 40.1122998 37.23461914 40.68530273 C34.83158163 42.46871569 32.41641561 44.23476914 30 46 C28.4042335 47.17741778 26.80917767 48.35579936 25.21484375 49.53515625 C22.04438645 51.8784392 18.86778828 54.21305122 15.6875 56.54296875 C12.54214484 58.85292072 9.41904233 61.18889539 6.3125 63.55078125 C5.57459229 64.11079834 4.83668457 64.67081543 4.07641602 65.24780273 C2.68059526 66.30968441 1.28770608 67.37543389 -0.10180664 68.44555664 C-4.77941259 72 -4.77941259 72 -7 72 C-7.28041814 58.58827712 -6.55700452 45.34704376 -5.45581055 31.98168945 C-5.18430593 28.64828474 -4.93456954 25.31366674 -4.68554688 21.97851562 C-4.51432983 19.84364461 -4.34185117 17.70887432 -4.16796875 15.57421875 C-4.09595749 14.58467697 -4.02394623 13.59513519 -3.94975281 12.5756073 C-3.52469898 7.66517554 -3.12378039 4.02590893 0 0 Z " fill="#FACD64" transform="translate(566,788)"/>
<path d="M0 0 C4.2706472 1.30587746 7.99926094 2.94742141 11.89453125 5.125 C13.00787842 5.7449585 14.12122559 6.36491699 15.26831055 7.00366211 C16.4498434 7.66886591 17.63123748 8.33431626 18.8125 9 C20.0217618 9.67674509 21.23115385 10.35325747 22.44067383 11.02954102 C31.70485663 16.22124288 40.89137513 21.53996393 50 27 C45.06743131 37.22605703 39.56642093 47.10927936 34 57 C29.20244959 56.42577582 25.48755337 54.24594156 21.375 51.875 C19.79194746 50.97867057 18.20859307 50.08287411 16.625 49.1875 C15.74714844 48.68863281 14.86929688 48.18976563 13.96484375 47.67578125 C8.73686324 44.72083575 3.48137698 41.81521925 -1.77069092 38.90338135 C-4.75695258 37.24723037 -7.74168512 35.58833202 -10.7265625 33.9296875 C-11.74314941 33.36491699 -12.75973633 32.80014648 -13.80712891 32.21826172 C-14.53077637 31.81623535 -15.25442383 31.41420898 -16 31 C-14.67904588 26.65162313 -12.98197857 22.89548948 -10.7421875 18.9453125 C-10.11699219 17.83671875 -9.49179687 16.728125 -8.84765625 15.5859375 C-8.19667969 14.44382812 -7.54570313 13.30171875 -6.875 12.125 C-6.20915523 10.94818823 -5.54378604 9.77110724 -4.87890625 8.59375 C-3.25725735 5.72648674 -1.63082801 2.86204916 0 0 Z " fill="#FCCE64" transform="translate(862,254)"/>
<path d="M0 0 C7.40158666 4.70820251 13.50567613 10.34322892 16 19 C17.35199916 30.10329313 12.62021189 38.08259705 7.5625 47.625 C7.13638428 48.43203369 6.71026855 49.23906738 6.27124023 50.07055664 C2.2849583 57.56470964 -1.88516994 64.95141438 -6.08251953 72.32885742 C-11.48839883 81.83129182 -16.7593455 91.40566898 -22 101 C-24.27208206 99.8774654 -26.54267645 98.75208479 -28.8125 97.625 C-29.77639648 97.14933594 -29.77639648 97.14933594 -30.75976562 96.6640625 C-33.63194461 95.23541389 -36.3267821 93.78214527 -39 92 C-37.31877387 85.88363747 -34.22462235 80.58502369 -31.1875 75.0625 C-30.61362549 74.00998047 -30.03975098 72.95746094 -29.44848633 71.87304688 C-25.43561101 64.53934094 -21.3259597 57.26334439 -17.1875 50 C-13.420337 43.3813429 -9.72969786 36.74457742 -6.3125 29.9375 C-5.99756592 29.31294922 -5.68263184 28.68839844 -5.3581543 28.04492188 C-2.03465484 21.2915859 -0.67743789 15.55993145 -0.375 8.125 C-0.33632813 7.34125 -0.29765625 6.5575 -0.2578125 5.75 C-0.16433378 3.83368633 -0.08111505 1.91687681 0 0 Z " fill="#CA315D" transform="translate(950,152)"/>
<path d="M0 0 C11.22 0 22.44 0 34 0 C34 16.5 34 33 34 50 C22.78 50 11.56 50 0 50 C0 33.5 0 17 0 0 Z " fill="#1086AD" transform="translate(193,656)"/>
<path d="M0 0 C11.22 0 22.44 0 34 0 C34 16.5 34 33 34 50 C22.78 50 11.56 50 0 50 C0 33.5 0 17 0 0 Z " fill="#1087AE" transform="translate(193,495)"/>
<path d="M0 0 C11.22 0 22.44 0 34 0 C34 16.5 34 33 34 50 C22.78 50 11.56 50 0 50 C0 33.5 0 17 0 0 Z " fill="#1086AD" transform="translate(193,318)"/>
<path d="M0 0 C12.66970387 6.15034169 12.66970387 6.15034169 18 10 C15.71311358 15.82116542 12.39873485 18.45355761 7.5 22 C6.37863647 22.83422485 6.37863647 22.83422485 5.23461914 23.68530273 C2.83158163 25.46871569 0.41641561 27.23476914 -2 29 C-3.5957665 30.17741778 -5.19082233 31.35579936 -6.78515625 32.53515625 C-9.95561355 34.8784392 -13.13221172 37.21305122 -16.3125 39.54296875 C-19.45785516 41.85292072 -22.58095767 44.18889539 -25.6875 46.55078125 C-26.42540771 47.11079834 -27.16331543 47.67081543 -27.92358398 48.24780273 C-29.31940474 49.30968441 -30.71229392 50.37543389 -32.10180664 51.44555664 C-36.77941259 55 -36.77941259 55 -39 55 C-39.13539281 52.10259378 -39.23426829 49.21154379 -39.3125 46.3125 C-39.35439453 45.49587891 -39.39628906 44.67925781 -39.43945312 43.83789062 C-39.51995057 39.86131702 -39.50578387 37.69756025 -37.125 34.4140625 C-36.09375 33.61742187 -35.0625 32.82078125 -34 32 C-33.25709717 31.41275146 -32.51419434 30.82550293 -31.7487793 30.22045898 C-29.08602571 28.13395965 -26.39172304 26.09491327 -23.6875 24.0625 C-22.77548828 23.37220703 -21.86347656 22.68191406 -20.92382812 21.97070312 C-19.57514648 20.95073242 -19.57514648 20.95073242 -18.19921875 19.91015625 C-17.32056152 19.24467773 -16.4419043 18.57919922 -15.53662109 17.89355469 C-13.92507005 16.69055278 -12.29909215 15.50646047 -10.65478516 14.34863281 C-6.63115933 11.49078195 -4.01253314 9.27898288 -2 4.625 C-1.608125 3.75101563 -1.21625 2.87703125 -0.8125 1.9765625 C-0.544375 1.32429687 -0.27625 0.67203125 0 0 Z " fill="#F5BA45" transform="translate(598,805)"/>
<path d="M0 0 C12.66970387 6.15034169 12.66970387 6.15034169 18 10 C13.06743131 20.22605703 7.56642093 30.10927936 2 40 C-2.7871428 39.42334609 -6.25128824 37.35917004 -10.3125 34.9375 C-10.95767578 34.56044922 -11.60285156 34.18339844 -12.26757812 33.79492188 C-13.84878152 32.86962507 -15.4249146 31.93567319 -17 31 C-16.34 30.67 -15.68 30.34 -15 30 C-14.29796503 28.34791976 -13.6373347 26.67810211 -13 25 C-12.09771133 23.25449009 -11.1676064 21.52316736 -10.21484375 19.8046875 C-9.68439453 18.84175781 -9.15394531 17.87882812 -8.60742188 16.88671875 C-8.05634766 15.89285156 -7.50527344 14.89898437 -6.9375 13.875 C-5.84018543 11.89448102 -4.7450316 9.91276288 -3.65234375 7.9296875 C-2.92519165 6.61846924 -2.92519165 6.61846924 -2.18334961 5.28076172 C-0.89269627 2.938443 -0.89269627 2.938443 0 0 Z " fill="#F5BA45" transform="translate(894,271)"/>
</svg>
