<svg version="1.1" id="Layer_1" xmlns="http://www.w3.org/2000/svg" xmlns:xlink="http://www.w3.org/1999/xlink" viewBox="0 0 512 512" xml:space="preserve" fill="#000000"><g id="SVGRepo_bgCarrier" stroke-width="0"></g><g id="SVGRepo_tracerCarrier" stroke-linecap="round" stroke-linejoin="round"></g><g id="SVGRepo_iconCarrier"> <path style="fill:#2D527C;" d="M477.062,195.478H75.253c-7.421,0-13.438-6.016-13.438-13.438v-53.096 c0-29.306,23.842-53.15,53.15-53.15h20.762c7.421,0,13.438,6.016,13.438,13.438c0,7.422-6.018,13.438-13.438,13.438h-20.762 c-14.487,0-26.273,11.787-26.273,26.273v39.658h374.932v-39.658c0-14.487-11.787-26.273-26.273-26.273H203.365 c-7.421,0-13.438-6.016-13.438-13.438c0-7.422,6.018-13.438,13.438-13.438H437.35c29.308,0,53.15,23.844,53.15,53.15v53.096 C490.5,189.461,484.482,195.478,477.062,195.478z"></path> <rect x="53.753" y="159.15" style="fill:#CEE8FA;" width="444.808" height="79.367"></rect> <g> <path style="fill:#2D527C;" d="M498.562,251.96H53.753c-7.421,0-13.438-6.016-13.438-13.438v-79.368 c0-7.422,6.018-13.438,13.438-13.438h444.808c7.421,0,13.438,6.016,13.438,13.438v79.368 C512,245.944,505.982,251.96,498.562,251.96z M67.192,225.084h417.932v-52.491H67.192V225.084z"></path> <path style="fill:#2D527C;" d="M178.189,403.955c-3.44,0-6.878-1.312-9.502-3.936c-5.248-5.248-5.248-13.757,0-19.006 l183.84-183.84c5.249-5.248,13.755-5.248,19.006,0c5.248,5.248,5.248,13.757,0,19.006l-183.842,183.84 C185.069,402.642,181.627,403.955,178.189,403.955z"></path> <path style="fill:#2D527C;" d="M362.03,403.955c-3.44,0-6.878-1.312-9.502-3.936l-183.842-183.84 c-5.248-5.248-5.248-13.757,0-19.006c5.249-5.248,13.755-5.248,19.006,0l183.842,183.84c5.248,5.248,5.248,13.757,0,19.006 C368.909,402.642,365.47,403.955,362.03,403.955z"></path> </g> <circle style="fill:#CEE8FA;" cx="178.192" cy="390.518" r="32.252"></circle> <path style="fill:#2D527C;" d="M178.189,436.207c-25.194,0-45.69-20.496-45.69-45.69s20.496-45.69,45.69-45.69 s45.69,20.496,45.69,45.69S203.384,436.207,178.189,436.207z M178.189,371.703c-10.374,0-18.814,8.439-18.814,18.814 s8.439,18.814,18.814,18.814c10.374,0,18.814-8.439,18.814-18.814S188.562,371.703,178.189,371.703z"></path> <circle style="fill:#CEE8FA;" cx="362.028" cy="390.518" r="32.252"></circle> <g> <path style="fill:#2D527C;" d="M362.03,436.207c-25.194,0-45.69-20.496-45.69-45.69s20.496-45.69,45.69-45.69 s45.69,20.496,45.69,45.69S387.224,436.207,362.03,436.207z M362.03,371.703c-10.374,0-18.814,8.439-18.814,18.814 s8.439,18.814,18.814,18.814s18.814-8.439,18.814-18.814S372.404,371.703,362.03,371.703z"></path> <path style="fill:#2D527C;" d="M75.253,172.592H13.438C6.018,172.592,0,166.576,0,159.154c0-7.422,6.018-13.438,13.438-13.438 h61.815c7.421,0,13.438,6.016,13.438,13.438C88.692,166.576,82.674,172.592,75.253,172.592z"></path> </g> </g></svg>